G04 #@! TF.GenerationSoftware,KiCad,Pcbnew,(5.1.5)-3*
G04 #@! TF.CreationDate,2020-05-05T16:11:28-04:00*
G04 #@! TF.ProjectId,TheSedan,54686553-6564-4616-9e2e-6b696361645f,rev?*
G04 #@! TF.SameCoordinates,Original*
G04 #@! TF.FileFunction,Paste,Bot*
G04 #@! TF.FilePolarity,Positive*
%FSLAX46Y46*%
G04 Gerber Fmt 4.6, Leading zero omitted, Abs format (unit mm)*
G04 Created by KiCad (PCBNEW (5.1.5)-3) date 2020-05-05 16:11:28*
%MOMM*%
%LPD*%
G04 APERTURE LIST*
%ADD10C,0.100000*%
%ADD11R,1.000000X1.900000*%
%ADD12R,1.800000X1.900000*%
%ADD13R,1.650000X1.300000*%
%ADD14R,1.425000X1.550000*%
%ADD15R,0.450000X1.380000*%
%ADD16R,1.200000X1.400000*%
%ADD17R,1.500000X0.550000*%
%ADD18R,0.550000X1.500000*%
%ADD19R,1.800000X1.100000*%
%ADD20R,0.900000X1.200000*%
G04 APERTURE END LIST*
D10*
G36*
X481136392Y-148526174D02*
G01*
X481160053Y-148529684D01*
X481183257Y-148535496D01*
X481205779Y-148543554D01*
X481227403Y-148553782D01*
X481247920Y-148566079D01*
X481267133Y-148580329D01*
X481284857Y-148596393D01*
X481300921Y-148614117D01*
X481315171Y-148633330D01*
X481327468Y-148653847D01*
X481337696Y-148675471D01*
X481345754Y-148697993D01*
X481351566Y-148721197D01*
X481355076Y-148744858D01*
X481356250Y-148768750D01*
X481356250Y-149681250D01*
X481355076Y-149705142D01*
X481351566Y-149728803D01*
X481345754Y-149752007D01*
X481337696Y-149774529D01*
X481327468Y-149796153D01*
X481315171Y-149816670D01*
X481300921Y-149835883D01*
X481284857Y-149853607D01*
X481267133Y-149869671D01*
X481247920Y-149883921D01*
X481227403Y-149896218D01*
X481205779Y-149906446D01*
X481183257Y-149914504D01*
X481160053Y-149920316D01*
X481136392Y-149923826D01*
X481112500Y-149925000D01*
X480625000Y-149925000D01*
X480601108Y-149923826D01*
X480577447Y-149920316D01*
X480554243Y-149914504D01*
X480531721Y-149906446D01*
X480510097Y-149896218D01*
X480489580Y-149883921D01*
X480470367Y-149869671D01*
X480452643Y-149853607D01*
X480436579Y-149835883D01*
X480422329Y-149816670D01*
X480410032Y-149796153D01*
X480399804Y-149774529D01*
X480391746Y-149752007D01*
X480385934Y-149728803D01*
X480382424Y-149705142D01*
X480381250Y-149681250D01*
X480381250Y-148768750D01*
X480382424Y-148744858D01*
X480385934Y-148721197D01*
X480391746Y-148697993D01*
X480399804Y-148675471D01*
X480410032Y-148653847D01*
X480422329Y-148633330D01*
X480436579Y-148614117D01*
X480452643Y-148596393D01*
X480470367Y-148580329D01*
X480489580Y-148566079D01*
X480510097Y-148553782D01*
X480531721Y-148543554D01*
X480554243Y-148535496D01*
X480577447Y-148529684D01*
X480601108Y-148526174D01*
X480625000Y-148525000D01*
X481112500Y-148525000D01*
X481136392Y-148526174D01*
G37*
G36*
X483011392Y-148526174D02*
G01*
X483035053Y-148529684D01*
X483058257Y-148535496D01*
X483080779Y-148543554D01*
X483102403Y-148553782D01*
X483122920Y-148566079D01*
X483142133Y-148580329D01*
X483159857Y-148596393D01*
X483175921Y-148614117D01*
X483190171Y-148633330D01*
X483202468Y-148653847D01*
X483212696Y-148675471D01*
X483220754Y-148697993D01*
X483226566Y-148721197D01*
X483230076Y-148744858D01*
X483231250Y-148768750D01*
X483231250Y-149681250D01*
X483230076Y-149705142D01*
X483226566Y-149728803D01*
X483220754Y-149752007D01*
X483212696Y-149774529D01*
X483202468Y-149796153D01*
X483190171Y-149816670D01*
X483175921Y-149835883D01*
X483159857Y-149853607D01*
X483142133Y-149869671D01*
X483122920Y-149883921D01*
X483102403Y-149896218D01*
X483080779Y-149906446D01*
X483058257Y-149914504D01*
X483035053Y-149920316D01*
X483011392Y-149923826D01*
X482987500Y-149925000D01*
X482500000Y-149925000D01*
X482476108Y-149923826D01*
X482452447Y-149920316D01*
X482429243Y-149914504D01*
X482406721Y-149906446D01*
X482385097Y-149896218D01*
X482364580Y-149883921D01*
X482345367Y-149869671D01*
X482327643Y-149853607D01*
X482311579Y-149835883D01*
X482297329Y-149816670D01*
X482285032Y-149796153D01*
X482274804Y-149774529D01*
X482266746Y-149752007D01*
X482260934Y-149728803D01*
X482257424Y-149705142D01*
X482256250Y-149681250D01*
X482256250Y-148768750D01*
X482257424Y-148744858D01*
X482260934Y-148721197D01*
X482266746Y-148697993D01*
X482274804Y-148675471D01*
X482285032Y-148653847D01*
X482297329Y-148633330D01*
X482311579Y-148614117D01*
X482327643Y-148596393D01*
X482345367Y-148580329D01*
X482364580Y-148566079D01*
X482385097Y-148553782D01*
X482406721Y-148543554D01*
X482429243Y-148535496D01*
X482452447Y-148529684D01*
X482476108Y-148526174D01*
X482500000Y-148525000D01*
X482987500Y-148525000D01*
X483011392Y-148526174D01*
G37*
G36*
X492430754Y-134501204D02*
G01*
X492455023Y-134504804D01*
X492478821Y-134510765D01*
X492501921Y-134519030D01*
X492524099Y-134529520D01*
X492545143Y-134542133D01*
X492564848Y-134556747D01*
X492583027Y-134573223D01*
X492599503Y-134591402D01*
X492614117Y-134611107D01*
X492626730Y-134632151D01*
X492637220Y-134654329D01*
X492645485Y-134677429D01*
X492651446Y-134701227D01*
X492655046Y-134725496D01*
X492656250Y-134750000D01*
X492656250Y-135500000D01*
X492655046Y-135524504D01*
X492651446Y-135548773D01*
X492645485Y-135572571D01*
X492637220Y-135595671D01*
X492626730Y-135617849D01*
X492614117Y-135638893D01*
X492599503Y-135658598D01*
X492583027Y-135676777D01*
X492564848Y-135693253D01*
X492545143Y-135707867D01*
X492524099Y-135720480D01*
X492501921Y-135730970D01*
X492478821Y-135739235D01*
X492455023Y-135745196D01*
X492430754Y-135748796D01*
X492406250Y-135750000D01*
X490256250Y-135750000D01*
X490231746Y-135748796D01*
X490207477Y-135745196D01*
X490183679Y-135739235D01*
X490160579Y-135730970D01*
X490138401Y-135720480D01*
X490117357Y-135707867D01*
X490097652Y-135693253D01*
X490079473Y-135676777D01*
X490062997Y-135658598D01*
X490048383Y-135638893D01*
X490035770Y-135617849D01*
X490025280Y-135595671D01*
X490017015Y-135572571D01*
X490011054Y-135548773D01*
X490007454Y-135524504D01*
X490006250Y-135500000D01*
X490006250Y-134750000D01*
X490007454Y-134725496D01*
X490011054Y-134701227D01*
X490017015Y-134677429D01*
X490025280Y-134654329D01*
X490035770Y-134632151D01*
X490048383Y-134611107D01*
X490062997Y-134591402D01*
X490079473Y-134573223D01*
X490097652Y-134556747D01*
X490117357Y-134542133D01*
X490138401Y-134529520D01*
X490160579Y-134519030D01*
X490183679Y-134510765D01*
X490207477Y-134504804D01*
X490231746Y-134501204D01*
X490256250Y-134500000D01*
X492406250Y-134500000D01*
X492430754Y-134501204D01*
G37*
G36*
X492430754Y-137301204D02*
G01*
X492455023Y-137304804D01*
X492478821Y-137310765D01*
X492501921Y-137319030D01*
X492524099Y-137329520D01*
X492545143Y-137342133D01*
X492564848Y-137356747D01*
X492583027Y-137373223D01*
X492599503Y-137391402D01*
X492614117Y-137411107D01*
X492626730Y-137432151D01*
X492637220Y-137454329D01*
X492645485Y-137477429D01*
X492651446Y-137501227D01*
X492655046Y-137525496D01*
X492656250Y-137550000D01*
X492656250Y-138300000D01*
X492655046Y-138324504D01*
X492651446Y-138348773D01*
X492645485Y-138372571D01*
X492637220Y-138395671D01*
X492626730Y-138417849D01*
X492614117Y-138438893D01*
X492599503Y-138458598D01*
X492583027Y-138476777D01*
X492564848Y-138493253D01*
X492545143Y-138507867D01*
X492524099Y-138520480D01*
X492501921Y-138530970D01*
X492478821Y-138539235D01*
X492455023Y-138545196D01*
X492430754Y-138548796D01*
X492406250Y-138550000D01*
X490256250Y-138550000D01*
X490231746Y-138548796D01*
X490207477Y-138545196D01*
X490183679Y-138539235D01*
X490160579Y-138530970D01*
X490138401Y-138520480D01*
X490117357Y-138507867D01*
X490097652Y-138493253D01*
X490079473Y-138476777D01*
X490062997Y-138458598D01*
X490048383Y-138438893D01*
X490035770Y-138417849D01*
X490025280Y-138395671D01*
X490017015Y-138372571D01*
X490011054Y-138348773D01*
X490007454Y-138324504D01*
X490006250Y-138300000D01*
X490006250Y-137550000D01*
X490007454Y-137525496D01*
X490011054Y-137501227D01*
X490017015Y-137477429D01*
X490025280Y-137454329D01*
X490035770Y-137432151D01*
X490048383Y-137411107D01*
X490062997Y-137391402D01*
X490079473Y-137373223D01*
X490097652Y-137356747D01*
X490117357Y-137342133D01*
X490138401Y-137329520D01*
X490160579Y-137319030D01*
X490183679Y-137310765D01*
X490207477Y-137304804D01*
X490231746Y-137301204D01*
X490256250Y-137300000D01*
X492406250Y-137300000D01*
X492430754Y-137301204D01*
G37*
D11*
X488118750Y-72618750D03*
D12*
X485418750Y-72618750D03*
D13*
X489943750Y-72618750D03*
X483193750Y-72618750D03*
D14*
X489056250Y-75193750D03*
X484081250Y-75193750D03*
D15*
X487868750Y-75278750D03*
X487218750Y-75278750D03*
X486568750Y-75278750D03*
X485918750Y-75278750D03*
X485268750Y-75278750D03*
D16*
X480900000Y-151787500D03*
X480900000Y-153987500D03*
X482600000Y-153987500D03*
X482600000Y-151787500D03*
D17*
X501793750Y-156400000D03*
X501793750Y-155600000D03*
X501793750Y-154800000D03*
X501793750Y-154000000D03*
X501793750Y-153200000D03*
X501793750Y-152400000D03*
X501793750Y-151600000D03*
X501793750Y-150800000D03*
X501793750Y-150000000D03*
X501793750Y-149200000D03*
X501793750Y-148400000D03*
D18*
X500093750Y-146700000D03*
X499293750Y-146700000D03*
X498493750Y-146700000D03*
X497693750Y-146700000D03*
X496893750Y-146700000D03*
X496093750Y-146700000D03*
X495293750Y-146700000D03*
X494493750Y-146700000D03*
X493693750Y-146700000D03*
X492893750Y-146700000D03*
X492093750Y-146700000D03*
D17*
X490393750Y-148400000D03*
X490393750Y-149200000D03*
X490393750Y-150000000D03*
X490393750Y-150800000D03*
X490393750Y-151600000D03*
X490393750Y-152400000D03*
X490393750Y-153200000D03*
X490393750Y-154000000D03*
X490393750Y-154800000D03*
X490393750Y-155600000D03*
X490393750Y-156400000D03*
D18*
X492093750Y-158100000D03*
X492893750Y-158100000D03*
X493693750Y-158100000D03*
X494493750Y-158100000D03*
X495293750Y-158100000D03*
X496093750Y-158100000D03*
X496893750Y-158100000D03*
X497693750Y-158100000D03*
X498493750Y-158100000D03*
X499293750Y-158100000D03*
X500093750Y-158100000D03*
D19*
X464418750Y-71175000D03*
X470618750Y-74875000D03*
X464418750Y-74875000D03*
X470618750Y-71175000D03*
D10*
G36*
X513861239Y-153237036D02*
G01*
X513884900Y-153240546D01*
X513908104Y-153246358D01*
X513930626Y-153254416D01*
X513952250Y-153264644D01*
X513972767Y-153276941D01*
X513991980Y-153291191D01*
X514009704Y-153307255D01*
X514354419Y-153651970D01*
X514370483Y-153669694D01*
X514384733Y-153688907D01*
X514397030Y-153709424D01*
X514407258Y-153731048D01*
X514415316Y-153753570D01*
X514421128Y-153776774D01*
X514424638Y-153800435D01*
X514425812Y-153824327D01*
X514424638Y-153848219D01*
X514421128Y-153871880D01*
X514415316Y-153895084D01*
X514407258Y-153917606D01*
X514397030Y-153939230D01*
X514384733Y-153959747D01*
X514370483Y-153978960D01*
X514354419Y-153996684D01*
X513709184Y-154641919D01*
X513691460Y-154657983D01*
X513672247Y-154672233D01*
X513651730Y-154684530D01*
X513630106Y-154694758D01*
X513607584Y-154702816D01*
X513584380Y-154708628D01*
X513560719Y-154712138D01*
X513536827Y-154713312D01*
X513512935Y-154712138D01*
X513489274Y-154708628D01*
X513466070Y-154702816D01*
X513443548Y-154694758D01*
X513421924Y-154684530D01*
X513401407Y-154672233D01*
X513382194Y-154657983D01*
X513364470Y-154641919D01*
X513019755Y-154297204D01*
X513003691Y-154279480D01*
X512989441Y-154260267D01*
X512977144Y-154239750D01*
X512966916Y-154218126D01*
X512958858Y-154195604D01*
X512953046Y-154172400D01*
X512949536Y-154148739D01*
X512948362Y-154124847D01*
X512949536Y-154100955D01*
X512953046Y-154077294D01*
X512958858Y-154054090D01*
X512966916Y-154031568D01*
X512977144Y-154009944D01*
X512989441Y-153989427D01*
X513003691Y-153970214D01*
X513019755Y-153952490D01*
X513664990Y-153307255D01*
X513682714Y-153291191D01*
X513701927Y-153276941D01*
X513722444Y-153264644D01*
X513744068Y-153254416D01*
X513766590Y-153246358D01*
X513789794Y-153240546D01*
X513813455Y-153237036D01*
X513837347Y-153235862D01*
X513861239Y-153237036D01*
G37*
G36*
X515187065Y-154562862D02*
G01*
X515210726Y-154566372D01*
X515233930Y-154572184D01*
X515256452Y-154580242D01*
X515278076Y-154590470D01*
X515298593Y-154602767D01*
X515317806Y-154617017D01*
X515335530Y-154633081D01*
X515680245Y-154977796D01*
X515696309Y-154995520D01*
X515710559Y-155014733D01*
X515722856Y-155035250D01*
X515733084Y-155056874D01*
X515741142Y-155079396D01*
X515746954Y-155102600D01*
X515750464Y-155126261D01*
X515751638Y-155150153D01*
X515750464Y-155174045D01*
X515746954Y-155197706D01*
X515741142Y-155220910D01*
X515733084Y-155243432D01*
X515722856Y-155265056D01*
X515710559Y-155285573D01*
X515696309Y-155304786D01*
X515680245Y-155322510D01*
X515035010Y-155967745D01*
X515017286Y-155983809D01*
X514998073Y-155998059D01*
X514977556Y-156010356D01*
X514955932Y-156020584D01*
X514933410Y-156028642D01*
X514910206Y-156034454D01*
X514886545Y-156037964D01*
X514862653Y-156039138D01*
X514838761Y-156037964D01*
X514815100Y-156034454D01*
X514791896Y-156028642D01*
X514769374Y-156020584D01*
X514747750Y-156010356D01*
X514727233Y-155998059D01*
X514708020Y-155983809D01*
X514690296Y-155967745D01*
X514345581Y-155623030D01*
X514329517Y-155605306D01*
X514315267Y-155586093D01*
X514302970Y-155565576D01*
X514292742Y-155543952D01*
X514284684Y-155521430D01*
X514278872Y-155498226D01*
X514275362Y-155474565D01*
X514274188Y-155450673D01*
X514275362Y-155426781D01*
X514278872Y-155403120D01*
X514284684Y-155379916D01*
X514292742Y-155357394D01*
X514302970Y-155335770D01*
X514315267Y-155315253D01*
X514329517Y-155296040D01*
X514345581Y-155278316D01*
X514990816Y-154633081D01*
X515008540Y-154617017D01*
X515027753Y-154602767D01*
X515048270Y-154590470D01*
X515069894Y-154580242D01*
X515092416Y-154572184D01*
X515115620Y-154566372D01*
X515139281Y-154562862D01*
X515163173Y-154561688D01*
X515187065Y-154562862D01*
G37*
G36*
X477523892Y-157469924D02*
G01*
X477547553Y-157473434D01*
X477570757Y-157479246D01*
X477593279Y-157487304D01*
X477614903Y-157497532D01*
X477635420Y-157509829D01*
X477654633Y-157524079D01*
X477672357Y-157540143D01*
X477688421Y-157557867D01*
X477702671Y-157577080D01*
X477714968Y-157597597D01*
X477725196Y-157619221D01*
X477733254Y-157641743D01*
X477739066Y-157664947D01*
X477742576Y-157688608D01*
X477743750Y-157712500D01*
X477743750Y-158200000D01*
X477742576Y-158223892D01*
X477739066Y-158247553D01*
X477733254Y-158270757D01*
X477725196Y-158293279D01*
X477714968Y-158314903D01*
X477702671Y-158335420D01*
X477688421Y-158354633D01*
X477672357Y-158372357D01*
X477654633Y-158388421D01*
X477635420Y-158402671D01*
X477614903Y-158414968D01*
X477593279Y-158425196D01*
X477570757Y-158433254D01*
X477547553Y-158439066D01*
X477523892Y-158442576D01*
X477500000Y-158443750D01*
X476587500Y-158443750D01*
X476563608Y-158442576D01*
X476539947Y-158439066D01*
X476516743Y-158433254D01*
X476494221Y-158425196D01*
X476472597Y-158414968D01*
X476452080Y-158402671D01*
X476432867Y-158388421D01*
X476415143Y-158372357D01*
X476399079Y-158354633D01*
X476384829Y-158335420D01*
X476372532Y-158314903D01*
X476362304Y-158293279D01*
X476354246Y-158270757D01*
X476348434Y-158247553D01*
X476344924Y-158223892D01*
X476343750Y-158200000D01*
X476343750Y-157712500D01*
X476344924Y-157688608D01*
X476348434Y-157664947D01*
X476354246Y-157641743D01*
X476362304Y-157619221D01*
X476372532Y-157597597D01*
X476384829Y-157577080D01*
X476399079Y-157557867D01*
X476415143Y-157540143D01*
X476432867Y-157524079D01*
X476452080Y-157509829D01*
X476472597Y-157497532D01*
X476494221Y-157487304D01*
X476516743Y-157479246D01*
X476539947Y-157473434D01*
X476563608Y-157469924D01*
X476587500Y-157468750D01*
X477500000Y-157468750D01*
X477523892Y-157469924D01*
G37*
G36*
X477523892Y-155594924D02*
G01*
X477547553Y-155598434D01*
X477570757Y-155604246D01*
X477593279Y-155612304D01*
X477614903Y-155622532D01*
X477635420Y-155634829D01*
X477654633Y-155649079D01*
X477672357Y-155665143D01*
X477688421Y-155682867D01*
X477702671Y-155702080D01*
X477714968Y-155722597D01*
X477725196Y-155744221D01*
X477733254Y-155766743D01*
X477739066Y-155789947D01*
X477742576Y-155813608D01*
X477743750Y-155837500D01*
X477743750Y-156325000D01*
X477742576Y-156348892D01*
X477739066Y-156372553D01*
X477733254Y-156395757D01*
X477725196Y-156418279D01*
X477714968Y-156439903D01*
X477702671Y-156460420D01*
X477688421Y-156479633D01*
X477672357Y-156497357D01*
X477654633Y-156513421D01*
X477635420Y-156527671D01*
X477614903Y-156539968D01*
X477593279Y-156550196D01*
X477570757Y-156558254D01*
X477547553Y-156564066D01*
X477523892Y-156567576D01*
X477500000Y-156568750D01*
X476587500Y-156568750D01*
X476563608Y-156567576D01*
X476539947Y-156564066D01*
X476516743Y-156558254D01*
X476494221Y-156550196D01*
X476472597Y-156539968D01*
X476452080Y-156527671D01*
X476432867Y-156513421D01*
X476415143Y-156497357D01*
X476399079Y-156479633D01*
X476384829Y-156460420D01*
X476372532Y-156439903D01*
X476362304Y-156418279D01*
X476354246Y-156395757D01*
X476348434Y-156372553D01*
X476344924Y-156348892D01*
X476343750Y-156325000D01*
X476343750Y-155837500D01*
X476344924Y-155813608D01*
X476348434Y-155789947D01*
X476354246Y-155766743D01*
X476362304Y-155744221D01*
X476372532Y-155722597D01*
X476384829Y-155702080D01*
X476399079Y-155682867D01*
X476415143Y-155665143D01*
X476432867Y-155649079D01*
X476452080Y-155634829D01*
X476472597Y-155622532D01*
X476494221Y-155612304D01*
X476516743Y-155604246D01*
X476539947Y-155598434D01*
X476563608Y-155594924D01*
X476587500Y-155593750D01*
X477500000Y-155593750D01*
X477523892Y-155594924D01*
G37*
G36*
X501917642Y-162019924D02*
G01*
X501941303Y-162023434D01*
X501964507Y-162029246D01*
X501987029Y-162037304D01*
X502008653Y-162047532D01*
X502029170Y-162059829D01*
X502048383Y-162074079D01*
X502066107Y-162090143D01*
X502082171Y-162107867D01*
X502096421Y-162127080D01*
X502108718Y-162147597D01*
X502118946Y-162169221D01*
X502127004Y-162191743D01*
X502132816Y-162214947D01*
X502136326Y-162238608D01*
X502137500Y-162262500D01*
X502137500Y-163175000D01*
X502136326Y-163198892D01*
X502132816Y-163222553D01*
X502127004Y-163245757D01*
X502118946Y-163268279D01*
X502108718Y-163289903D01*
X502096421Y-163310420D01*
X502082171Y-163329633D01*
X502066107Y-163347357D01*
X502048383Y-163363421D01*
X502029170Y-163377671D01*
X502008653Y-163389968D01*
X501987029Y-163400196D01*
X501964507Y-163408254D01*
X501941303Y-163414066D01*
X501917642Y-163417576D01*
X501893750Y-163418750D01*
X501406250Y-163418750D01*
X501382358Y-163417576D01*
X501358697Y-163414066D01*
X501335493Y-163408254D01*
X501312971Y-163400196D01*
X501291347Y-163389968D01*
X501270830Y-163377671D01*
X501251617Y-163363421D01*
X501233893Y-163347357D01*
X501217829Y-163329633D01*
X501203579Y-163310420D01*
X501191282Y-163289903D01*
X501181054Y-163268279D01*
X501172996Y-163245757D01*
X501167184Y-163222553D01*
X501163674Y-163198892D01*
X501162500Y-163175000D01*
X501162500Y-162262500D01*
X501163674Y-162238608D01*
X501167184Y-162214947D01*
X501172996Y-162191743D01*
X501181054Y-162169221D01*
X501191282Y-162147597D01*
X501203579Y-162127080D01*
X501217829Y-162107867D01*
X501233893Y-162090143D01*
X501251617Y-162074079D01*
X501270830Y-162059829D01*
X501291347Y-162047532D01*
X501312971Y-162037304D01*
X501335493Y-162029246D01*
X501358697Y-162023434D01*
X501382358Y-162019924D01*
X501406250Y-162018750D01*
X501893750Y-162018750D01*
X501917642Y-162019924D01*
G37*
G36*
X500042642Y-162019924D02*
G01*
X500066303Y-162023434D01*
X500089507Y-162029246D01*
X500112029Y-162037304D01*
X500133653Y-162047532D01*
X500154170Y-162059829D01*
X500173383Y-162074079D01*
X500191107Y-162090143D01*
X500207171Y-162107867D01*
X500221421Y-162127080D01*
X500233718Y-162147597D01*
X500243946Y-162169221D01*
X500252004Y-162191743D01*
X500257816Y-162214947D01*
X500261326Y-162238608D01*
X500262500Y-162262500D01*
X500262500Y-163175000D01*
X500261326Y-163198892D01*
X500257816Y-163222553D01*
X500252004Y-163245757D01*
X500243946Y-163268279D01*
X500233718Y-163289903D01*
X500221421Y-163310420D01*
X500207171Y-163329633D01*
X500191107Y-163347357D01*
X500173383Y-163363421D01*
X500154170Y-163377671D01*
X500133653Y-163389968D01*
X500112029Y-163400196D01*
X500089507Y-163408254D01*
X500066303Y-163414066D01*
X500042642Y-163417576D01*
X500018750Y-163418750D01*
X499531250Y-163418750D01*
X499507358Y-163417576D01*
X499483697Y-163414066D01*
X499460493Y-163408254D01*
X499437971Y-163400196D01*
X499416347Y-163389968D01*
X499395830Y-163377671D01*
X499376617Y-163363421D01*
X499358893Y-163347357D01*
X499342829Y-163329633D01*
X499328579Y-163310420D01*
X499316282Y-163289903D01*
X499306054Y-163268279D01*
X499297996Y-163245757D01*
X499292184Y-163222553D01*
X499288674Y-163198892D01*
X499287500Y-163175000D01*
X499287500Y-162262500D01*
X499288674Y-162238608D01*
X499292184Y-162214947D01*
X499297996Y-162191743D01*
X499306054Y-162169221D01*
X499316282Y-162147597D01*
X499328579Y-162127080D01*
X499342829Y-162107867D01*
X499358893Y-162090143D01*
X499376617Y-162074079D01*
X499395830Y-162059829D01*
X499416347Y-162047532D01*
X499437971Y-162037304D01*
X499460493Y-162029246D01*
X499483697Y-162023434D01*
X499507358Y-162019924D01*
X499531250Y-162018750D01*
X500018750Y-162018750D01*
X500042642Y-162019924D01*
G37*
G36*
X506967642Y-162019924D02*
G01*
X506991303Y-162023434D01*
X507014507Y-162029246D01*
X507037029Y-162037304D01*
X507058653Y-162047532D01*
X507079170Y-162059829D01*
X507098383Y-162074079D01*
X507116107Y-162090143D01*
X507132171Y-162107867D01*
X507146421Y-162127080D01*
X507158718Y-162147597D01*
X507168946Y-162169221D01*
X507177004Y-162191743D01*
X507182816Y-162214947D01*
X507186326Y-162238608D01*
X507187500Y-162262500D01*
X507187500Y-163175000D01*
X507186326Y-163198892D01*
X507182816Y-163222553D01*
X507177004Y-163245757D01*
X507168946Y-163268279D01*
X507158718Y-163289903D01*
X507146421Y-163310420D01*
X507132171Y-163329633D01*
X507116107Y-163347357D01*
X507098383Y-163363421D01*
X507079170Y-163377671D01*
X507058653Y-163389968D01*
X507037029Y-163400196D01*
X507014507Y-163408254D01*
X506991303Y-163414066D01*
X506967642Y-163417576D01*
X506943750Y-163418750D01*
X506456250Y-163418750D01*
X506432358Y-163417576D01*
X506408697Y-163414066D01*
X506385493Y-163408254D01*
X506362971Y-163400196D01*
X506341347Y-163389968D01*
X506320830Y-163377671D01*
X506301617Y-163363421D01*
X506283893Y-163347357D01*
X506267829Y-163329633D01*
X506253579Y-163310420D01*
X506241282Y-163289903D01*
X506231054Y-163268279D01*
X506222996Y-163245757D01*
X506217184Y-163222553D01*
X506213674Y-163198892D01*
X506212500Y-163175000D01*
X506212500Y-162262500D01*
X506213674Y-162238608D01*
X506217184Y-162214947D01*
X506222996Y-162191743D01*
X506231054Y-162169221D01*
X506241282Y-162147597D01*
X506253579Y-162127080D01*
X506267829Y-162107867D01*
X506283893Y-162090143D01*
X506301617Y-162074079D01*
X506320830Y-162059829D01*
X506341347Y-162047532D01*
X506362971Y-162037304D01*
X506385493Y-162029246D01*
X506408697Y-162023434D01*
X506432358Y-162019924D01*
X506456250Y-162018750D01*
X506943750Y-162018750D01*
X506967642Y-162019924D01*
G37*
G36*
X505092642Y-162019924D02*
G01*
X505116303Y-162023434D01*
X505139507Y-162029246D01*
X505162029Y-162037304D01*
X505183653Y-162047532D01*
X505204170Y-162059829D01*
X505223383Y-162074079D01*
X505241107Y-162090143D01*
X505257171Y-162107867D01*
X505271421Y-162127080D01*
X505283718Y-162147597D01*
X505293946Y-162169221D01*
X505302004Y-162191743D01*
X505307816Y-162214947D01*
X505311326Y-162238608D01*
X505312500Y-162262500D01*
X505312500Y-163175000D01*
X505311326Y-163198892D01*
X505307816Y-163222553D01*
X505302004Y-163245757D01*
X505293946Y-163268279D01*
X505283718Y-163289903D01*
X505271421Y-163310420D01*
X505257171Y-163329633D01*
X505241107Y-163347357D01*
X505223383Y-163363421D01*
X505204170Y-163377671D01*
X505183653Y-163389968D01*
X505162029Y-163400196D01*
X505139507Y-163408254D01*
X505116303Y-163414066D01*
X505092642Y-163417576D01*
X505068750Y-163418750D01*
X504581250Y-163418750D01*
X504557358Y-163417576D01*
X504533697Y-163414066D01*
X504510493Y-163408254D01*
X504487971Y-163400196D01*
X504466347Y-163389968D01*
X504445830Y-163377671D01*
X504426617Y-163363421D01*
X504408893Y-163347357D01*
X504392829Y-163329633D01*
X504378579Y-163310420D01*
X504366282Y-163289903D01*
X504356054Y-163268279D01*
X504347996Y-163245757D01*
X504342184Y-163222553D01*
X504338674Y-163198892D01*
X504337500Y-163175000D01*
X504337500Y-162262500D01*
X504338674Y-162238608D01*
X504342184Y-162214947D01*
X504347996Y-162191743D01*
X504356054Y-162169221D01*
X504366282Y-162147597D01*
X504378579Y-162127080D01*
X504392829Y-162107867D01*
X504408893Y-162090143D01*
X504426617Y-162074079D01*
X504445830Y-162059829D01*
X504466347Y-162047532D01*
X504487971Y-162037304D01*
X504510493Y-162029246D01*
X504533697Y-162023434D01*
X504557358Y-162019924D01*
X504581250Y-162018750D01*
X505068750Y-162018750D01*
X505092642Y-162019924D01*
G37*
D20*
X688243750Y-161131250D03*
X684943750Y-161131250D03*
X688243750Y-142081250D03*
X684943750Y-142081250D03*
X688306250Y-123031250D03*
X685006250Y-123031250D03*
X688243750Y-103981250D03*
X684943750Y-103981250D03*
X688306250Y-84931250D03*
X685006250Y-84931250D03*
X669256250Y-161131250D03*
X665956250Y-161131250D03*
X669193750Y-142081250D03*
X665893750Y-142081250D03*
X657287500Y-123031250D03*
X653987500Y-123031250D03*
X664493750Y-103981250D03*
X661193750Y-103981250D03*
X659668750Y-84931250D03*
X656368750Y-84931250D03*
X650143750Y-161131250D03*
X646843750Y-161131250D03*
X640681250Y-103981250D03*
X637381250Y-103981250D03*
X631156250Y-84931250D03*
X627856250Y-84931250D03*
X631093750Y-161131250D03*
X627793750Y-161131250D03*
X643062500Y-142081250D03*
X639762500Y-142081250D03*
X626331250Y-123031250D03*
X623031250Y-123031250D03*
X621631250Y-103981250D03*
X618331250Y-103981250D03*
X612106250Y-84931250D03*
X608806250Y-84931250D03*
X612106250Y-161131250D03*
X608806250Y-161131250D03*
X616868750Y-142081250D03*
X613568750Y-142081250D03*
X607281250Y-123031250D03*
X603981250Y-123031250D03*
X602518750Y-103981250D03*
X599218750Y-103981250D03*
X593056250Y-84931250D03*
X589756250Y-84931250D03*
X593056250Y-161131250D03*
X589756250Y-161131250D03*
X597756250Y-142081250D03*
X594456250Y-142081250D03*
X588231250Y-123031250D03*
X584931250Y-123031250D03*
X583531250Y-103981250D03*
X580231250Y-103981250D03*
X574006250Y-84931250D03*
X570706250Y-84931250D03*
X578768750Y-142081250D03*
X575468750Y-142081250D03*
X569181250Y-123031250D03*
X565881250Y-123031250D03*
X564356250Y-103981250D03*
X561056250Y-103981250D03*
X554956250Y-84931250D03*
X551656250Y-84931250D03*
X559656250Y-142081250D03*
X556356250Y-142081250D03*
X550193750Y-123031250D03*
X546893750Y-123031250D03*
X545368750Y-103981250D03*
X542068750Y-103981250D03*
X535906250Y-84931250D03*
X532606250Y-84931250D03*
X523937500Y-161131250D03*
X520637500Y-161131250D03*
X540668750Y-142081250D03*
X537368750Y-142081250D03*
X531081250Y-123031250D03*
X527781250Y-123031250D03*
X526318750Y-103981250D03*
X523018750Y-103981250D03*
X516793750Y-84931250D03*
X513493750Y-84931250D03*
X521618750Y-142081250D03*
X518318750Y-142081250D03*
X512093750Y-123031250D03*
X508793750Y-123031250D03*
X507331250Y-103981250D03*
X504031250Y-103981250D03*
X497743750Y-84931250D03*
X494443750Y-84931250D03*
X502568750Y-142081250D03*
X499268750Y-142081250D03*
X493043750Y-123031250D03*
X489743750Y-123031250D03*
X488218750Y-103981250D03*
X484918750Y-103981250D03*
X478693750Y-84931250D03*
X475393750Y-84931250D03*
X483518750Y-142081250D03*
X480218750Y-142081250D03*
X473993750Y-123031250D03*
X470693750Y-123031250D03*
X469231250Y-103981250D03*
X465931250Y-103981250D03*
X459706250Y-84931250D03*
X456406250Y-84931250D03*
X452562500Y-161131250D03*
X449262500Y-161131250D03*
X464468750Y-142081250D03*
X461168750Y-142081250D03*
X454881250Y-123031250D03*
X451581250Y-123031250D03*
X450118750Y-103981250D03*
X446818750Y-103981250D03*
X440656250Y-84931250D03*
X437356250Y-84931250D03*
X428750000Y-161131250D03*
X425450000Y-161131250D03*
X445418750Y-142081250D03*
X442118750Y-142081250D03*
X435893750Y-123031250D03*
X432593750Y-123031250D03*
X431131250Y-103981250D03*
X427831250Y-103981250D03*
X421543750Y-84931250D03*
X418243750Y-84931250D03*
X404937500Y-161131250D03*
X401637500Y-161131250D03*
X414462500Y-142081250D03*
X411162500Y-142081250D03*
X409637500Y-123031250D03*
X406337500Y-123031250D03*
X407318750Y-103981250D03*
X404018750Y-103981250D03*
X402556250Y-84931250D03*
X399256250Y-84931250D03*
D10*
G36*
X505361545Y-157349536D02*
G01*
X505385206Y-157353046D01*
X505408410Y-157358858D01*
X505430932Y-157366916D01*
X505452556Y-157377144D01*
X505473073Y-157389441D01*
X505492286Y-157403691D01*
X505510010Y-157419755D01*
X506155245Y-158064990D01*
X506171309Y-158082714D01*
X506185559Y-158101927D01*
X506197856Y-158122444D01*
X506208084Y-158144068D01*
X506216142Y-158166590D01*
X506221954Y-158189794D01*
X506225464Y-158213455D01*
X506226638Y-158237347D01*
X506225464Y-158261239D01*
X506221954Y-158284900D01*
X506216142Y-158308104D01*
X506208084Y-158330626D01*
X506197856Y-158352250D01*
X506185559Y-158372767D01*
X506171309Y-158391980D01*
X506155245Y-158409704D01*
X505810530Y-158754419D01*
X505792806Y-158770483D01*
X505773593Y-158784733D01*
X505753076Y-158797030D01*
X505731452Y-158807258D01*
X505708930Y-158815316D01*
X505685726Y-158821128D01*
X505662065Y-158824638D01*
X505638173Y-158825812D01*
X505614281Y-158824638D01*
X505590620Y-158821128D01*
X505567416Y-158815316D01*
X505544894Y-158807258D01*
X505523270Y-158797030D01*
X505502753Y-158784733D01*
X505483540Y-158770483D01*
X505465816Y-158754419D01*
X504820581Y-158109184D01*
X504804517Y-158091460D01*
X504790267Y-158072247D01*
X504777970Y-158051730D01*
X504767742Y-158030106D01*
X504759684Y-158007584D01*
X504753872Y-157984380D01*
X504750362Y-157960719D01*
X504749188Y-157936827D01*
X504750362Y-157912935D01*
X504753872Y-157889274D01*
X504759684Y-157866070D01*
X504767742Y-157843548D01*
X504777970Y-157821924D01*
X504790267Y-157801407D01*
X504804517Y-157782194D01*
X504820581Y-157764470D01*
X505165296Y-157419755D01*
X505183020Y-157403691D01*
X505202233Y-157389441D01*
X505222750Y-157377144D01*
X505244374Y-157366916D01*
X505266896Y-157358858D01*
X505290100Y-157353046D01*
X505313761Y-157349536D01*
X505337653Y-157348362D01*
X505361545Y-157349536D01*
G37*
G36*
X504035719Y-158675362D02*
G01*
X504059380Y-158678872D01*
X504082584Y-158684684D01*
X504105106Y-158692742D01*
X504126730Y-158702970D01*
X504147247Y-158715267D01*
X504166460Y-158729517D01*
X504184184Y-158745581D01*
X504829419Y-159390816D01*
X504845483Y-159408540D01*
X504859733Y-159427753D01*
X504872030Y-159448270D01*
X504882258Y-159469894D01*
X504890316Y-159492416D01*
X504896128Y-159515620D01*
X504899638Y-159539281D01*
X504900812Y-159563173D01*
X504899638Y-159587065D01*
X504896128Y-159610726D01*
X504890316Y-159633930D01*
X504882258Y-159656452D01*
X504872030Y-159678076D01*
X504859733Y-159698593D01*
X504845483Y-159717806D01*
X504829419Y-159735530D01*
X504484704Y-160080245D01*
X504466980Y-160096309D01*
X504447767Y-160110559D01*
X504427250Y-160122856D01*
X504405626Y-160133084D01*
X504383104Y-160141142D01*
X504359900Y-160146954D01*
X504336239Y-160150464D01*
X504312347Y-160151638D01*
X504288455Y-160150464D01*
X504264794Y-160146954D01*
X504241590Y-160141142D01*
X504219068Y-160133084D01*
X504197444Y-160122856D01*
X504176927Y-160110559D01*
X504157714Y-160096309D01*
X504139990Y-160080245D01*
X503494755Y-159435010D01*
X503478691Y-159417286D01*
X503464441Y-159398073D01*
X503452144Y-159377556D01*
X503441916Y-159355932D01*
X503433858Y-159333410D01*
X503428046Y-159310206D01*
X503424536Y-159286545D01*
X503423362Y-159262653D01*
X503424536Y-159238761D01*
X503428046Y-159215100D01*
X503433858Y-159191896D01*
X503441916Y-159169374D01*
X503452144Y-159147750D01*
X503464441Y-159127233D01*
X503478691Y-159108020D01*
X503494755Y-159090296D01*
X503839470Y-158745581D01*
X503857194Y-158729517D01*
X503876407Y-158715267D01*
X503896924Y-158702970D01*
X503918548Y-158692742D01*
X503941070Y-158684684D01*
X503964274Y-158678872D01*
X503987935Y-158675362D01*
X504011827Y-158674188D01*
X504035719Y-158675362D01*
G37*
G36*
X508536545Y-157349536D02*
G01*
X508560206Y-157353046D01*
X508583410Y-157358858D01*
X508605932Y-157366916D01*
X508627556Y-157377144D01*
X508648073Y-157389441D01*
X508667286Y-157403691D01*
X508685010Y-157419755D01*
X509330245Y-158064990D01*
X509346309Y-158082714D01*
X509360559Y-158101927D01*
X509372856Y-158122444D01*
X509383084Y-158144068D01*
X509391142Y-158166590D01*
X509396954Y-158189794D01*
X509400464Y-158213455D01*
X509401638Y-158237347D01*
X509400464Y-158261239D01*
X509396954Y-158284900D01*
X509391142Y-158308104D01*
X509383084Y-158330626D01*
X509372856Y-158352250D01*
X509360559Y-158372767D01*
X509346309Y-158391980D01*
X509330245Y-158409704D01*
X508985530Y-158754419D01*
X508967806Y-158770483D01*
X508948593Y-158784733D01*
X508928076Y-158797030D01*
X508906452Y-158807258D01*
X508883930Y-158815316D01*
X508860726Y-158821128D01*
X508837065Y-158824638D01*
X508813173Y-158825812D01*
X508789281Y-158824638D01*
X508765620Y-158821128D01*
X508742416Y-158815316D01*
X508719894Y-158807258D01*
X508698270Y-158797030D01*
X508677753Y-158784733D01*
X508658540Y-158770483D01*
X508640816Y-158754419D01*
X507995581Y-158109184D01*
X507979517Y-158091460D01*
X507965267Y-158072247D01*
X507952970Y-158051730D01*
X507942742Y-158030106D01*
X507934684Y-158007584D01*
X507928872Y-157984380D01*
X507925362Y-157960719D01*
X507924188Y-157936827D01*
X507925362Y-157912935D01*
X507928872Y-157889274D01*
X507934684Y-157866070D01*
X507942742Y-157843548D01*
X507952970Y-157821924D01*
X507965267Y-157801407D01*
X507979517Y-157782194D01*
X507995581Y-157764470D01*
X508340296Y-157419755D01*
X508358020Y-157403691D01*
X508377233Y-157389441D01*
X508397750Y-157377144D01*
X508419374Y-157366916D01*
X508441896Y-157358858D01*
X508465100Y-157353046D01*
X508488761Y-157349536D01*
X508512653Y-157348362D01*
X508536545Y-157349536D01*
G37*
G36*
X507210719Y-158675362D02*
G01*
X507234380Y-158678872D01*
X507257584Y-158684684D01*
X507280106Y-158692742D01*
X507301730Y-158702970D01*
X507322247Y-158715267D01*
X507341460Y-158729517D01*
X507359184Y-158745581D01*
X508004419Y-159390816D01*
X508020483Y-159408540D01*
X508034733Y-159427753D01*
X508047030Y-159448270D01*
X508057258Y-159469894D01*
X508065316Y-159492416D01*
X508071128Y-159515620D01*
X508074638Y-159539281D01*
X508075812Y-159563173D01*
X508074638Y-159587065D01*
X508071128Y-159610726D01*
X508065316Y-159633930D01*
X508057258Y-159656452D01*
X508047030Y-159678076D01*
X508034733Y-159698593D01*
X508020483Y-159717806D01*
X508004419Y-159735530D01*
X507659704Y-160080245D01*
X507641980Y-160096309D01*
X507622767Y-160110559D01*
X507602250Y-160122856D01*
X507580626Y-160133084D01*
X507558104Y-160141142D01*
X507534900Y-160146954D01*
X507511239Y-160150464D01*
X507487347Y-160151638D01*
X507463455Y-160150464D01*
X507439794Y-160146954D01*
X507416590Y-160141142D01*
X507394068Y-160133084D01*
X507372444Y-160122856D01*
X507351927Y-160110559D01*
X507332714Y-160096309D01*
X507314990Y-160080245D01*
X506669755Y-159435010D01*
X506653691Y-159417286D01*
X506639441Y-159398073D01*
X506627144Y-159377556D01*
X506616916Y-159355932D01*
X506608858Y-159333410D01*
X506603046Y-159310206D01*
X506599536Y-159286545D01*
X506598362Y-159262653D01*
X506599536Y-159238761D01*
X506603046Y-159215100D01*
X506608858Y-159191896D01*
X506616916Y-159169374D01*
X506627144Y-159147750D01*
X506639441Y-159127233D01*
X506653691Y-159108020D01*
X506669755Y-159090296D01*
X507014470Y-158745581D01*
X507032194Y-158729517D01*
X507051407Y-158715267D01*
X507071924Y-158702970D01*
X507093548Y-158692742D01*
X507116070Y-158684684D01*
X507139274Y-158678872D01*
X507162935Y-158675362D01*
X507186827Y-158674188D01*
X507210719Y-158675362D01*
G37*
G36*
X511711545Y-157349536D02*
G01*
X511735206Y-157353046D01*
X511758410Y-157358858D01*
X511780932Y-157366916D01*
X511802556Y-157377144D01*
X511823073Y-157389441D01*
X511842286Y-157403691D01*
X511860010Y-157419755D01*
X512505245Y-158064990D01*
X512521309Y-158082714D01*
X512535559Y-158101927D01*
X512547856Y-158122444D01*
X512558084Y-158144068D01*
X512566142Y-158166590D01*
X512571954Y-158189794D01*
X512575464Y-158213455D01*
X512576638Y-158237347D01*
X512575464Y-158261239D01*
X512571954Y-158284900D01*
X512566142Y-158308104D01*
X512558084Y-158330626D01*
X512547856Y-158352250D01*
X512535559Y-158372767D01*
X512521309Y-158391980D01*
X512505245Y-158409704D01*
X512160530Y-158754419D01*
X512142806Y-158770483D01*
X512123593Y-158784733D01*
X512103076Y-158797030D01*
X512081452Y-158807258D01*
X512058930Y-158815316D01*
X512035726Y-158821128D01*
X512012065Y-158824638D01*
X511988173Y-158825812D01*
X511964281Y-158824638D01*
X511940620Y-158821128D01*
X511917416Y-158815316D01*
X511894894Y-158807258D01*
X511873270Y-158797030D01*
X511852753Y-158784733D01*
X511833540Y-158770483D01*
X511815816Y-158754419D01*
X511170581Y-158109184D01*
X511154517Y-158091460D01*
X511140267Y-158072247D01*
X511127970Y-158051730D01*
X511117742Y-158030106D01*
X511109684Y-158007584D01*
X511103872Y-157984380D01*
X511100362Y-157960719D01*
X511099188Y-157936827D01*
X511100362Y-157912935D01*
X511103872Y-157889274D01*
X511109684Y-157866070D01*
X511117742Y-157843548D01*
X511127970Y-157821924D01*
X511140267Y-157801407D01*
X511154517Y-157782194D01*
X511170581Y-157764470D01*
X511515296Y-157419755D01*
X511533020Y-157403691D01*
X511552233Y-157389441D01*
X511572750Y-157377144D01*
X511594374Y-157366916D01*
X511616896Y-157358858D01*
X511640100Y-157353046D01*
X511663761Y-157349536D01*
X511687653Y-157348362D01*
X511711545Y-157349536D01*
G37*
G36*
X510385719Y-158675362D02*
G01*
X510409380Y-158678872D01*
X510432584Y-158684684D01*
X510455106Y-158692742D01*
X510476730Y-158702970D01*
X510497247Y-158715267D01*
X510516460Y-158729517D01*
X510534184Y-158745581D01*
X511179419Y-159390816D01*
X511195483Y-159408540D01*
X511209733Y-159427753D01*
X511222030Y-159448270D01*
X511232258Y-159469894D01*
X511240316Y-159492416D01*
X511246128Y-159515620D01*
X511249638Y-159539281D01*
X511250812Y-159563173D01*
X511249638Y-159587065D01*
X511246128Y-159610726D01*
X511240316Y-159633930D01*
X511232258Y-159656452D01*
X511222030Y-159678076D01*
X511209733Y-159698593D01*
X511195483Y-159717806D01*
X511179419Y-159735530D01*
X510834704Y-160080245D01*
X510816980Y-160096309D01*
X510797767Y-160110559D01*
X510777250Y-160122856D01*
X510755626Y-160133084D01*
X510733104Y-160141142D01*
X510709900Y-160146954D01*
X510686239Y-160150464D01*
X510662347Y-160151638D01*
X510638455Y-160150464D01*
X510614794Y-160146954D01*
X510591590Y-160141142D01*
X510569068Y-160133084D01*
X510547444Y-160122856D01*
X510526927Y-160110559D01*
X510507714Y-160096309D01*
X510489990Y-160080245D01*
X509844755Y-159435010D01*
X509828691Y-159417286D01*
X509814441Y-159398073D01*
X509802144Y-159377556D01*
X509791916Y-159355932D01*
X509783858Y-159333410D01*
X509778046Y-159310206D01*
X509774536Y-159286545D01*
X509773362Y-159262653D01*
X509774536Y-159238761D01*
X509778046Y-159215100D01*
X509783858Y-159191896D01*
X509791916Y-159169374D01*
X509802144Y-159147750D01*
X509814441Y-159127233D01*
X509828691Y-159108020D01*
X509844755Y-159090296D01*
X510189470Y-158745581D01*
X510207194Y-158729517D01*
X510226407Y-158715267D01*
X510246924Y-158702970D01*
X510268548Y-158692742D01*
X510291070Y-158684684D01*
X510314274Y-158678872D01*
X510337935Y-158675362D01*
X510361827Y-158674188D01*
X510385719Y-158675362D01*
G37*
G36*
X514755708Y-157349536D02*
G01*
X514779369Y-157353046D01*
X514802573Y-157358858D01*
X514825095Y-157366916D01*
X514846719Y-157377144D01*
X514867236Y-157389441D01*
X514886449Y-157403691D01*
X514904173Y-157419755D01*
X515549408Y-158064990D01*
X515565472Y-158082714D01*
X515579722Y-158101927D01*
X515592019Y-158122444D01*
X515602247Y-158144068D01*
X515610305Y-158166590D01*
X515616117Y-158189794D01*
X515619627Y-158213455D01*
X515620801Y-158237347D01*
X515619627Y-158261239D01*
X515616117Y-158284900D01*
X515610305Y-158308104D01*
X515602247Y-158330626D01*
X515592019Y-158352250D01*
X515579722Y-158372767D01*
X515565472Y-158391980D01*
X515549408Y-158409704D01*
X515204693Y-158754419D01*
X515186969Y-158770483D01*
X515167756Y-158784733D01*
X515147239Y-158797030D01*
X515125615Y-158807258D01*
X515103093Y-158815316D01*
X515079889Y-158821128D01*
X515056228Y-158824638D01*
X515032336Y-158825812D01*
X515008444Y-158824638D01*
X514984783Y-158821128D01*
X514961579Y-158815316D01*
X514939057Y-158807258D01*
X514917433Y-158797030D01*
X514896916Y-158784733D01*
X514877703Y-158770483D01*
X514859979Y-158754419D01*
X514214744Y-158109184D01*
X514198680Y-158091460D01*
X514184430Y-158072247D01*
X514172133Y-158051730D01*
X514161905Y-158030106D01*
X514153847Y-158007584D01*
X514148035Y-157984380D01*
X514144525Y-157960719D01*
X514143351Y-157936827D01*
X514144525Y-157912935D01*
X514148035Y-157889274D01*
X514153847Y-157866070D01*
X514161905Y-157843548D01*
X514172133Y-157821924D01*
X514184430Y-157801407D01*
X514198680Y-157782194D01*
X514214744Y-157764470D01*
X514559459Y-157419755D01*
X514577183Y-157403691D01*
X514596396Y-157389441D01*
X514616913Y-157377144D01*
X514638537Y-157366916D01*
X514661059Y-157358858D01*
X514684263Y-157353046D01*
X514707924Y-157349536D01*
X514731816Y-157348362D01*
X514755708Y-157349536D01*
G37*
G36*
X513429882Y-158675362D02*
G01*
X513453543Y-158678872D01*
X513476747Y-158684684D01*
X513499269Y-158692742D01*
X513520893Y-158702970D01*
X513541410Y-158715267D01*
X513560623Y-158729517D01*
X513578347Y-158745581D01*
X514223582Y-159390816D01*
X514239646Y-159408540D01*
X514253896Y-159427753D01*
X514266193Y-159448270D01*
X514276421Y-159469894D01*
X514284479Y-159492416D01*
X514290291Y-159515620D01*
X514293801Y-159539281D01*
X514294975Y-159563173D01*
X514293801Y-159587065D01*
X514290291Y-159610726D01*
X514284479Y-159633930D01*
X514276421Y-159656452D01*
X514266193Y-159678076D01*
X514253896Y-159698593D01*
X514239646Y-159717806D01*
X514223582Y-159735530D01*
X513878867Y-160080245D01*
X513861143Y-160096309D01*
X513841930Y-160110559D01*
X513821413Y-160122856D01*
X513799789Y-160133084D01*
X513777267Y-160141142D01*
X513754063Y-160146954D01*
X513730402Y-160150464D01*
X513706510Y-160151638D01*
X513682618Y-160150464D01*
X513658957Y-160146954D01*
X513635753Y-160141142D01*
X513613231Y-160133084D01*
X513591607Y-160122856D01*
X513571090Y-160110559D01*
X513551877Y-160096309D01*
X513534153Y-160080245D01*
X512888918Y-159435010D01*
X512872854Y-159417286D01*
X512858604Y-159398073D01*
X512846307Y-159377556D01*
X512836079Y-159355932D01*
X512828021Y-159333410D01*
X512822209Y-159310206D01*
X512818699Y-159286545D01*
X512817525Y-159262653D01*
X512818699Y-159238761D01*
X512822209Y-159215100D01*
X512828021Y-159191896D01*
X512836079Y-159169374D01*
X512846307Y-159147750D01*
X512858604Y-159127233D01*
X512872854Y-159108020D01*
X512888918Y-159090296D01*
X513233633Y-158745581D01*
X513251357Y-158729517D01*
X513270570Y-158715267D01*
X513291087Y-158702970D01*
X513312711Y-158692742D01*
X513335233Y-158684684D01*
X513358437Y-158678872D01*
X513382098Y-158675362D01*
X513405990Y-158674188D01*
X513429882Y-158675362D01*
G37*
G36*
X494773892Y-162019924D02*
G01*
X494797553Y-162023434D01*
X494820757Y-162029246D01*
X494843279Y-162037304D01*
X494864903Y-162047532D01*
X494885420Y-162059829D01*
X494904633Y-162074079D01*
X494922357Y-162090143D01*
X494938421Y-162107867D01*
X494952671Y-162127080D01*
X494964968Y-162147597D01*
X494975196Y-162169221D01*
X494983254Y-162191743D01*
X494989066Y-162214947D01*
X494992576Y-162238608D01*
X494993750Y-162262500D01*
X494993750Y-163175000D01*
X494992576Y-163198892D01*
X494989066Y-163222553D01*
X494983254Y-163245757D01*
X494975196Y-163268279D01*
X494964968Y-163289903D01*
X494952671Y-163310420D01*
X494938421Y-163329633D01*
X494922357Y-163347357D01*
X494904633Y-163363421D01*
X494885420Y-163377671D01*
X494864903Y-163389968D01*
X494843279Y-163400196D01*
X494820757Y-163408254D01*
X494797553Y-163414066D01*
X494773892Y-163417576D01*
X494750000Y-163418750D01*
X494262500Y-163418750D01*
X494238608Y-163417576D01*
X494214947Y-163414066D01*
X494191743Y-163408254D01*
X494169221Y-163400196D01*
X494147597Y-163389968D01*
X494127080Y-163377671D01*
X494107867Y-163363421D01*
X494090143Y-163347357D01*
X494074079Y-163329633D01*
X494059829Y-163310420D01*
X494047532Y-163289903D01*
X494037304Y-163268279D01*
X494029246Y-163245757D01*
X494023434Y-163222553D01*
X494019924Y-163198892D01*
X494018750Y-163175000D01*
X494018750Y-162262500D01*
X494019924Y-162238608D01*
X494023434Y-162214947D01*
X494029246Y-162191743D01*
X494037304Y-162169221D01*
X494047532Y-162147597D01*
X494059829Y-162127080D01*
X494074079Y-162107867D01*
X494090143Y-162090143D01*
X494107867Y-162074079D01*
X494127080Y-162059829D01*
X494147597Y-162047532D01*
X494169221Y-162037304D01*
X494191743Y-162029246D01*
X494214947Y-162023434D01*
X494238608Y-162019924D01*
X494262500Y-162018750D01*
X494750000Y-162018750D01*
X494773892Y-162019924D01*
G37*
G36*
X492898892Y-162019924D02*
G01*
X492922553Y-162023434D01*
X492945757Y-162029246D01*
X492968279Y-162037304D01*
X492989903Y-162047532D01*
X493010420Y-162059829D01*
X493029633Y-162074079D01*
X493047357Y-162090143D01*
X493063421Y-162107867D01*
X493077671Y-162127080D01*
X493089968Y-162147597D01*
X493100196Y-162169221D01*
X493108254Y-162191743D01*
X493114066Y-162214947D01*
X493117576Y-162238608D01*
X493118750Y-162262500D01*
X493118750Y-163175000D01*
X493117576Y-163198892D01*
X493114066Y-163222553D01*
X493108254Y-163245757D01*
X493100196Y-163268279D01*
X493089968Y-163289903D01*
X493077671Y-163310420D01*
X493063421Y-163329633D01*
X493047357Y-163347357D01*
X493029633Y-163363421D01*
X493010420Y-163377671D01*
X492989903Y-163389968D01*
X492968279Y-163400196D01*
X492945757Y-163408254D01*
X492922553Y-163414066D01*
X492898892Y-163417576D01*
X492875000Y-163418750D01*
X492387500Y-163418750D01*
X492363608Y-163417576D01*
X492339947Y-163414066D01*
X492316743Y-163408254D01*
X492294221Y-163400196D01*
X492272597Y-163389968D01*
X492252080Y-163377671D01*
X492232867Y-163363421D01*
X492215143Y-163347357D01*
X492199079Y-163329633D01*
X492184829Y-163310420D01*
X492172532Y-163289903D01*
X492162304Y-163268279D01*
X492154246Y-163245757D01*
X492148434Y-163222553D01*
X492144924Y-163198892D01*
X492143750Y-163175000D01*
X492143750Y-162262500D01*
X492144924Y-162238608D01*
X492148434Y-162214947D01*
X492154246Y-162191743D01*
X492162304Y-162169221D01*
X492172532Y-162147597D01*
X492184829Y-162127080D01*
X492199079Y-162107867D01*
X492215143Y-162090143D01*
X492232867Y-162074079D01*
X492252080Y-162059829D01*
X492272597Y-162047532D01*
X492294221Y-162037304D01*
X492316743Y-162029246D01*
X492339947Y-162023434D01*
X492363608Y-162019924D01*
X492387500Y-162018750D01*
X492875000Y-162018750D01*
X492898892Y-162019924D01*
G37*
G36*
X477523892Y-151626174D02*
G01*
X477547553Y-151629684D01*
X477570757Y-151635496D01*
X477593279Y-151643554D01*
X477614903Y-151653782D01*
X477635420Y-151666079D01*
X477654633Y-151680329D01*
X477672357Y-151696393D01*
X477688421Y-151714117D01*
X477702671Y-151733330D01*
X477714968Y-151753847D01*
X477725196Y-151775471D01*
X477733254Y-151797993D01*
X477739066Y-151821197D01*
X477742576Y-151844858D01*
X477743750Y-151868750D01*
X477743750Y-152356250D01*
X477742576Y-152380142D01*
X477739066Y-152403803D01*
X477733254Y-152427007D01*
X477725196Y-152449529D01*
X477714968Y-152471153D01*
X477702671Y-152491670D01*
X477688421Y-152510883D01*
X477672357Y-152528607D01*
X477654633Y-152544671D01*
X477635420Y-152558921D01*
X477614903Y-152571218D01*
X477593279Y-152581446D01*
X477570757Y-152589504D01*
X477547553Y-152595316D01*
X477523892Y-152598826D01*
X477500000Y-152600000D01*
X476587500Y-152600000D01*
X476563608Y-152598826D01*
X476539947Y-152595316D01*
X476516743Y-152589504D01*
X476494221Y-152581446D01*
X476472597Y-152571218D01*
X476452080Y-152558921D01*
X476432867Y-152544671D01*
X476415143Y-152528607D01*
X476399079Y-152510883D01*
X476384829Y-152491670D01*
X476372532Y-152471153D01*
X476362304Y-152449529D01*
X476354246Y-152427007D01*
X476348434Y-152403803D01*
X476344924Y-152380142D01*
X476343750Y-152356250D01*
X476343750Y-151868750D01*
X476344924Y-151844858D01*
X476348434Y-151821197D01*
X476354246Y-151797993D01*
X476362304Y-151775471D01*
X476372532Y-151753847D01*
X476384829Y-151733330D01*
X476399079Y-151714117D01*
X476415143Y-151696393D01*
X476432867Y-151680329D01*
X476452080Y-151666079D01*
X476472597Y-151653782D01*
X476494221Y-151643554D01*
X476516743Y-151635496D01*
X476539947Y-151629684D01*
X476563608Y-151626174D01*
X476587500Y-151625000D01*
X477500000Y-151625000D01*
X477523892Y-151626174D01*
G37*
G36*
X477523892Y-153501174D02*
G01*
X477547553Y-153504684D01*
X477570757Y-153510496D01*
X477593279Y-153518554D01*
X477614903Y-153528782D01*
X477635420Y-153541079D01*
X477654633Y-153555329D01*
X477672357Y-153571393D01*
X477688421Y-153589117D01*
X477702671Y-153608330D01*
X477714968Y-153628847D01*
X477725196Y-153650471D01*
X477733254Y-153672993D01*
X477739066Y-153696197D01*
X477742576Y-153719858D01*
X477743750Y-153743750D01*
X477743750Y-154231250D01*
X477742576Y-154255142D01*
X477739066Y-154278803D01*
X477733254Y-154302007D01*
X477725196Y-154324529D01*
X477714968Y-154346153D01*
X477702671Y-154366670D01*
X477688421Y-154385883D01*
X477672357Y-154403607D01*
X477654633Y-154419671D01*
X477635420Y-154433921D01*
X477614903Y-154446218D01*
X477593279Y-154456446D01*
X477570757Y-154464504D01*
X477547553Y-154470316D01*
X477523892Y-154473826D01*
X477500000Y-154475000D01*
X476587500Y-154475000D01*
X476563608Y-154473826D01*
X476539947Y-154470316D01*
X476516743Y-154464504D01*
X476494221Y-154456446D01*
X476472597Y-154446218D01*
X476452080Y-154433921D01*
X476432867Y-154419671D01*
X476415143Y-154403607D01*
X476399079Y-154385883D01*
X476384829Y-154366670D01*
X476372532Y-154346153D01*
X476362304Y-154324529D01*
X476354246Y-154302007D01*
X476348434Y-154278803D01*
X476344924Y-154255142D01*
X476343750Y-154231250D01*
X476343750Y-153743750D01*
X476344924Y-153719858D01*
X476348434Y-153696197D01*
X476354246Y-153672993D01*
X476362304Y-153650471D01*
X476372532Y-153628847D01*
X476384829Y-153608330D01*
X476399079Y-153589117D01*
X476415143Y-153571393D01*
X476432867Y-153555329D01*
X476452080Y-153541079D01*
X476472597Y-153528782D01*
X476494221Y-153518554D01*
X476516743Y-153510496D01*
X476539947Y-153504684D01*
X476563608Y-153501174D01*
X476587500Y-153500000D01*
X477500000Y-153500000D01*
X477523892Y-153501174D01*
G37*
M02*
