G04 #@! TF.GenerationSoftware,KiCad,Pcbnew,(5.1.5)-3*
G04 #@! TF.CreationDate,2020-05-05T16:11:28-04:00*
G04 #@! TF.ProjectId,TheSedan,54686553-6564-4616-9e2e-6b696361645f,rev?*
G04 #@! TF.SameCoordinates,Original*
G04 #@! TF.FileFunction,Copper,L1,Top*
G04 #@! TF.FilePolarity,Positive*
%FSLAX46Y46*%
G04 Gerber Fmt 4.6, Leading zero omitted, Abs format (unit mm)*
G04 Created by KiCad (PCBNEW (5.1.5)-3) date 2020-05-05 16:11:28*
%MOMM*%
%LPD*%
G04 APERTURE LIST*
%ADD10C,2.250000*%
%ADD11C,2.250000*%
%ADD12C,0.800000*%
%ADD13C,0.250000*%
G04 APERTURE END LIST*
D10*
X441206250Y-132525000D03*
D11*
X439896250Y-133985000D02*
X441206252Y-132525000D01*
D10*
X446246250Y-131445000D03*
D11*
X446206250Y-132025000D02*
X446246250Y-131445000D01*
D10*
X431681250Y-113475000D03*
D11*
X430371250Y-114935000D02*
X431681252Y-113475000D01*
D10*
X436721250Y-112395000D03*
D11*
X436681250Y-112975000D02*
X436721250Y-112395000D01*
D10*
X426918750Y-94425000D03*
D11*
X425608750Y-95885000D02*
X426918752Y-94425000D01*
D10*
X431958750Y-93345000D03*
D11*
X431918750Y-93925000D02*
X431958750Y-93345000D01*
D10*
X417393750Y-75375000D03*
D11*
X416083750Y-76835000D02*
X417393752Y-75375000D01*
D10*
X422433750Y-74295000D03*
D11*
X422393750Y-74875000D02*
X422433750Y-74295000D01*
D10*
X684093750Y-151575000D03*
D11*
X682783750Y-153035000D02*
X684093752Y-151575000D01*
D10*
X689133750Y-150495000D03*
D11*
X689093750Y-151075000D02*
X689133750Y-150495000D01*
D10*
X684093750Y-132525000D03*
D11*
X682783750Y-133985000D02*
X684093752Y-132525000D01*
D10*
X689133750Y-131445000D03*
D11*
X689093750Y-132025000D02*
X689133750Y-131445000D01*
D10*
X684093750Y-113475000D03*
D11*
X682783750Y-114935000D02*
X684093752Y-113475000D01*
D10*
X689133750Y-112395000D03*
D11*
X689093750Y-112975000D02*
X689133750Y-112395000D01*
D10*
X684093750Y-94425000D03*
D11*
X682783750Y-95885000D02*
X684093752Y-94425000D01*
D10*
X689133750Y-93345000D03*
D11*
X689093750Y-93925000D02*
X689133750Y-93345000D01*
D10*
X684093750Y-75375000D03*
D11*
X682783750Y-76835000D02*
X684093752Y-75375000D01*
D10*
X689133750Y-74295000D03*
D11*
X689093750Y-74875000D02*
X689133750Y-74295000D01*
D10*
X665043750Y-151575000D03*
D11*
X663733750Y-153035000D02*
X665043752Y-151575000D01*
D10*
X670083750Y-150495000D03*
D11*
X670043750Y-151075000D02*
X670083750Y-150495000D01*
D10*
X665043750Y-132525000D03*
D11*
X663733750Y-133985000D02*
X665043752Y-132525000D01*
D10*
X670083750Y-131445000D03*
D11*
X670043750Y-132025000D02*
X670083750Y-131445000D01*
D10*
X653137500Y-113475000D03*
D11*
X651827500Y-114935000D02*
X653137502Y-113475000D01*
D10*
X658177500Y-112395000D03*
D11*
X658137500Y-112975000D02*
X658177500Y-112395000D01*
D10*
X660281250Y-94425000D03*
D11*
X658971250Y-95885000D02*
X660281252Y-94425000D01*
D10*
X665321250Y-93345000D03*
D11*
X665281250Y-93925000D02*
X665321250Y-93345000D01*
D10*
X655518750Y-75375000D03*
D11*
X654208750Y-76835000D02*
X655518752Y-75375000D01*
D10*
X660558750Y-74295000D03*
D11*
X660518750Y-74875000D02*
X660558750Y-74295000D01*
D10*
X645993750Y-151575000D03*
D11*
X644683750Y-153035000D02*
X645993752Y-151575000D01*
D10*
X651033750Y-150495000D03*
D11*
X650993750Y-151075000D02*
X651033750Y-150495000D01*
D10*
X636468750Y-94425000D03*
D11*
X635158750Y-95885000D02*
X636468752Y-94425000D01*
D10*
X641508750Y-93345000D03*
D11*
X641468750Y-93925000D02*
X641508750Y-93345000D01*
D10*
X626943750Y-75375000D03*
D11*
X625633750Y-76835000D02*
X626943752Y-75375000D01*
D10*
X631983750Y-74295000D03*
D11*
X631943750Y-74875000D02*
X631983750Y-74295000D01*
D10*
X626943750Y-151575000D03*
D11*
X625633750Y-153035000D02*
X626943752Y-151575000D01*
D10*
X631983750Y-150495000D03*
D11*
X631943750Y-151075000D02*
X631983750Y-150495000D01*
D10*
X638850000Y-132525000D03*
D11*
X637540000Y-133985000D02*
X638850002Y-132525000D01*
D10*
X643890000Y-131445000D03*
D11*
X643850000Y-132025000D02*
X643890000Y-131445000D01*
D10*
X622181250Y-113475000D03*
D11*
X620871250Y-114935000D02*
X622181252Y-113475000D01*
D10*
X627221250Y-112395000D03*
D11*
X627181250Y-112975000D02*
X627221250Y-112395000D01*
D10*
X617418750Y-94425000D03*
D11*
X616108750Y-95885000D02*
X617418752Y-94425000D01*
D10*
X622458750Y-93345000D03*
D11*
X622418750Y-93925000D02*
X622458750Y-93345000D01*
D10*
X607893750Y-75375000D03*
D11*
X606583750Y-76835000D02*
X607893752Y-75375000D01*
D10*
X612933750Y-74295000D03*
D11*
X612893750Y-74875000D02*
X612933750Y-74295000D01*
D10*
X607893750Y-151575000D03*
D11*
X606583750Y-153035000D02*
X607893752Y-151575000D01*
D10*
X612933750Y-150495000D03*
D11*
X612893750Y-151075000D02*
X612933750Y-150495000D01*
D10*
X612656250Y-132525000D03*
D11*
X611346250Y-133985000D02*
X612656252Y-132525000D01*
D10*
X617696250Y-131445000D03*
D11*
X617656250Y-132025000D02*
X617696250Y-131445000D01*
D10*
X603131250Y-113475000D03*
D11*
X601821250Y-114935000D02*
X603131252Y-113475000D01*
D10*
X608171250Y-112395000D03*
D11*
X608131250Y-112975000D02*
X608171250Y-112395000D01*
D10*
X598368750Y-94425000D03*
D11*
X597058750Y-95885000D02*
X598368752Y-94425000D01*
D10*
X603408750Y-93345000D03*
D11*
X603368750Y-93925000D02*
X603408750Y-93345000D01*
D10*
X588843750Y-75375000D03*
D11*
X587533750Y-76835000D02*
X588843752Y-75375000D01*
D10*
X593883750Y-74295000D03*
D11*
X593843750Y-74875000D02*
X593883750Y-74295000D01*
D10*
X588843750Y-151575000D03*
D11*
X587533750Y-153035000D02*
X588843752Y-151575000D01*
D10*
X593883750Y-150495000D03*
D11*
X593843750Y-151075000D02*
X593883750Y-150495000D01*
D10*
X593606250Y-132525000D03*
D11*
X592296250Y-133985000D02*
X593606252Y-132525000D01*
D10*
X598646250Y-131445000D03*
D11*
X598606250Y-132025000D02*
X598646250Y-131445000D01*
D10*
X584081250Y-113475000D03*
D11*
X582771250Y-114935000D02*
X584081252Y-113475000D01*
D10*
X589121250Y-112395000D03*
D11*
X589081250Y-112975000D02*
X589121250Y-112395000D01*
D10*
X579318750Y-94425000D03*
D11*
X578008750Y-95885000D02*
X579318752Y-94425000D01*
D10*
X584358750Y-93345000D03*
D11*
X584318750Y-93925000D02*
X584358750Y-93345000D01*
D10*
X569793750Y-75375000D03*
D11*
X568483750Y-76835000D02*
X569793752Y-75375000D01*
D10*
X574833750Y-74295000D03*
D11*
X574793750Y-74875000D02*
X574833750Y-74295000D01*
D10*
X574556250Y-132525000D03*
D11*
X573246250Y-133985000D02*
X574556252Y-132525000D01*
D10*
X579596250Y-131445000D03*
D11*
X579556250Y-132025000D02*
X579596250Y-131445000D01*
D10*
X565031250Y-113475000D03*
D11*
X563721250Y-114935000D02*
X565031252Y-113475000D01*
D10*
X570071250Y-112395000D03*
D11*
X570031250Y-112975000D02*
X570071250Y-112395000D01*
D10*
X560268750Y-94425000D03*
D11*
X558958750Y-95885000D02*
X560268752Y-94425000D01*
D10*
X565308750Y-93345000D03*
D11*
X565268750Y-93925000D02*
X565308750Y-93345000D01*
D10*
X550743750Y-75375000D03*
D11*
X549433750Y-76835000D02*
X550743752Y-75375000D01*
D10*
X555783750Y-74295000D03*
D11*
X555743750Y-74875000D02*
X555783750Y-74295000D01*
D10*
X555506250Y-132525000D03*
D11*
X554196250Y-133985000D02*
X555506252Y-132525000D01*
D10*
X560546250Y-131445000D03*
D11*
X560506250Y-132025000D02*
X560546250Y-131445000D01*
D10*
X545981250Y-113475000D03*
D11*
X544671250Y-114935000D02*
X545981252Y-113475000D01*
D10*
X551021250Y-112395000D03*
D11*
X550981250Y-112975000D02*
X551021250Y-112395000D01*
D10*
X541218750Y-94425000D03*
D11*
X539908750Y-95885000D02*
X541218752Y-94425000D01*
D10*
X546258750Y-93345000D03*
D11*
X546218750Y-93925000D02*
X546258750Y-93345000D01*
D10*
X531693750Y-75375000D03*
D11*
X530383750Y-76835000D02*
X531693752Y-75375000D01*
D10*
X536733750Y-74295000D03*
D11*
X536693750Y-74875000D02*
X536733750Y-74295000D01*
D10*
X519787500Y-151575000D03*
D11*
X518477500Y-153035000D02*
X519787502Y-151575000D01*
D10*
X524827500Y-150495000D03*
D11*
X524787500Y-151075000D02*
X524827500Y-150495000D01*
D10*
X536456250Y-132525000D03*
D11*
X535146250Y-133985000D02*
X536456252Y-132525000D01*
D10*
X541496250Y-131445000D03*
D11*
X541456250Y-132025000D02*
X541496250Y-131445000D01*
D10*
X526931250Y-113475000D03*
D11*
X525621250Y-114935000D02*
X526931252Y-113475000D01*
D10*
X531971250Y-112395000D03*
D11*
X531931250Y-112975000D02*
X531971250Y-112395000D01*
D10*
X522168750Y-94425000D03*
D11*
X520858750Y-95885000D02*
X522168752Y-94425000D01*
D10*
X527208750Y-93345000D03*
D11*
X527168750Y-93925000D02*
X527208750Y-93345000D01*
D10*
X512643750Y-75375000D03*
D11*
X511333750Y-76835000D02*
X512643752Y-75375000D01*
D10*
X517683750Y-74295000D03*
D11*
X517643750Y-74875000D02*
X517683750Y-74295000D01*
D10*
X517406250Y-132525000D03*
D11*
X516096250Y-133985000D02*
X517406252Y-132525000D01*
D10*
X522446250Y-131445000D03*
D11*
X522406250Y-132025000D02*
X522446250Y-131445000D01*
D10*
X507881250Y-113475000D03*
D11*
X506571250Y-114935000D02*
X507881252Y-113475000D01*
D10*
X512921250Y-112395000D03*
D11*
X512881250Y-112975000D02*
X512921250Y-112395000D01*
D10*
X503118750Y-94425000D03*
D11*
X501808750Y-95885000D02*
X503118752Y-94425000D01*
D10*
X508158750Y-93345000D03*
D11*
X508118750Y-93925000D02*
X508158750Y-93345000D01*
D10*
X493593750Y-75375000D03*
D11*
X492283750Y-76835000D02*
X493593752Y-75375000D01*
D10*
X498633750Y-74295000D03*
D11*
X498593750Y-74875000D02*
X498633750Y-74295000D01*
D10*
X498356250Y-132525000D03*
D11*
X497046250Y-133985000D02*
X498356252Y-132525000D01*
D10*
X503396250Y-131445000D03*
D11*
X503356250Y-132025000D02*
X503396250Y-131445000D01*
D10*
X488831250Y-113475000D03*
D11*
X487521250Y-114935000D02*
X488831252Y-113475000D01*
D10*
X493871250Y-112395000D03*
D11*
X493831250Y-112975000D02*
X493871250Y-112395000D01*
D10*
X484068750Y-94425000D03*
D11*
X482758750Y-95885000D02*
X484068752Y-94425000D01*
D10*
X489108750Y-93345000D03*
D11*
X489068750Y-93925000D02*
X489108750Y-93345000D01*
D10*
X474543750Y-75375000D03*
D11*
X473233750Y-76835000D02*
X474543752Y-75375000D01*
D10*
X479583750Y-74295000D03*
D11*
X479543750Y-74875000D02*
X479583750Y-74295000D01*
D10*
X479306250Y-132525000D03*
D11*
X477996250Y-133985000D02*
X479306252Y-132525000D01*
D10*
X484346250Y-131445000D03*
D11*
X484306250Y-132025000D02*
X484346250Y-131445000D01*
D10*
X469781250Y-113475000D03*
D11*
X468471250Y-114935000D02*
X469781252Y-113475000D01*
D10*
X474821250Y-112395000D03*
D11*
X474781250Y-112975000D02*
X474821250Y-112395000D01*
D10*
X465018750Y-94425000D03*
D11*
X463708750Y-95885000D02*
X465018752Y-94425000D01*
D10*
X470058750Y-93345000D03*
D11*
X470018750Y-93925000D02*
X470058750Y-93345000D01*
D10*
X455493750Y-75375000D03*
D11*
X454183750Y-76835000D02*
X455493752Y-75375000D01*
D10*
X460533750Y-74295000D03*
D11*
X460493750Y-74875000D02*
X460533750Y-74295000D01*
D10*
X448350000Y-151575000D03*
D11*
X447040000Y-153035000D02*
X448350002Y-151575000D01*
D10*
X453390000Y-150495000D03*
D11*
X453350000Y-151075000D02*
X453390000Y-150495000D01*
D10*
X460256250Y-132525000D03*
D11*
X458946250Y-133985000D02*
X460256252Y-132525000D01*
D10*
X465296250Y-131445000D03*
D11*
X465256250Y-132025000D02*
X465296250Y-131445000D01*
D10*
X450731250Y-113475000D03*
D11*
X449421250Y-114935000D02*
X450731252Y-113475000D01*
D10*
X455771250Y-112395000D03*
D11*
X455731250Y-112975000D02*
X455771250Y-112395000D01*
D10*
X445968750Y-94425000D03*
D11*
X444658750Y-95885000D02*
X445968752Y-94425000D01*
D10*
X451008750Y-93345000D03*
D11*
X450968750Y-93925000D02*
X451008750Y-93345000D01*
D10*
X436443750Y-75375000D03*
D11*
X435133750Y-76835000D02*
X436443752Y-75375000D01*
D10*
X441483750Y-74295000D03*
D11*
X441443750Y-74875000D02*
X441483750Y-74295000D01*
D10*
X424537500Y-151575000D03*
D11*
X423227500Y-153035000D02*
X424537502Y-151575000D01*
D10*
X429577500Y-150495000D03*
D11*
X429537500Y-151075000D02*
X429577500Y-150495000D01*
D10*
X400725000Y-151575000D03*
D11*
X399415000Y-153035000D02*
X400725002Y-151575000D01*
D10*
X405765000Y-150495000D03*
D11*
X405725000Y-151075000D02*
X405765000Y-150495000D01*
D10*
X410250000Y-132525000D03*
D11*
X408940000Y-133985000D02*
X410250002Y-132525000D01*
D10*
X415290000Y-131445000D03*
D11*
X415250000Y-132025000D02*
X415290000Y-131445000D01*
D10*
X405487500Y-113475000D03*
D11*
X404177500Y-114935000D02*
X405487502Y-113475000D01*
D10*
X410527500Y-112395000D03*
D11*
X410487500Y-112975000D02*
X410527500Y-112395000D01*
D10*
X403106250Y-94425000D03*
D11*
X401796250Y-95885000D02*
X403106252Y-94425000D01*
D10*
X408146250Y-93345000D03*
D11*
X408106250Y-93925000D02*
X408146250Y-93345000D01*
D10*
X398343750Y-75375000D03*
D11*
X397033750Y-76835000D02*
X398343752Y-75375000D01*
D10*
X403383750Y-74295000D03*
D11*
X403343750Y-74875000D02*
X403383750Y-74295000D01*
D12*
X473868750Y-86518750D03*
X483393750Y-124681251D03*
X478631250Y-108743750D03*
X481806250Y-108743750D03*
X462756250Y-83343750D03*
X472281250Y-83343750D03*
X499268750Y-125412500D03*
X499268750Y-122237500D03*
X484981250Y-142875000D03*
X497681250Y-142875000D03*
X504018750Y-154000000D03*
X511175000Y-162718750D03*
X467518750Y-164306250D03*
X471487500Y-160337500D03*
X444500000Y-146050000D03*
X461168750Y-145256250D03*
X478631250Y-144462500D03*
X496887500Y-140493750D03*
X550818750Y-149975000D03*
X569868750Y-150768750D03*
X591343750Y-145256250D03*
X610393750Y-146050000D03*
X630237500Y-146843750D03*
X646112500Y-147637500D03*
X661987500Y-148431250D03*
X584200000Y-159543750D03*
X496887500Y-160337500D03*
X496093750Y-162718750D03*
X484981250Y-87312500D03*
X484981250Y-81756250D03*
X490537500Y-142081250D03*
X479425000Y-103187500D03*
X484187500Y-152400000D03*
X485775000Y-152400000D03*
X484981250Y-150812500D03*
X479425000Y-153987500D03*
X496093750Y-159543750D03*
X491331250Y-162718750D03*
X499268750Y-156368750D03*
X493712500Y-154781250D03*
X492918750Y-149225000D03*
X488156250Y-79375000D03*
X490537500Y-127000000D03*
X485775000Y-108743750D03*
X484187500Y-120650000D03*
X503237500Y-71437500D03*
X530225000Y-135731250D03*
X531812500Y-139700000D03*
X531812500Y-163512500D03*
X498493750Y-160318750D03*
X503237500Y-162718750D03*
X528637500Y-164306250D03*
X502443750Y-72231250D03*
X528637500Y-135731250D03*
X530225000Y-139700000D03*
X497693750Y-159531250D03*
X498475000Y-162693750D03*
X475456250Y-95250000D03*
X473868750Y-155575000D03*
X515937500Y-153193750D03*
X504031250Y-146843750D03*
D13*
X476764509Y-102044669D02*
X476764509Y-89414509D01*
X476764509Y-89414509D02*
X473868750Y-86518750D01*
X476764509Y-102044669D02*
X476764509Y-106877009D01*
X476764509Y-106877009D02*
X478631250Y-108743750D01*
X481806250Y-108743750D02*
X483393750Y-110331250D01*
X483393750Y-110331250D02*
X483393750Y-124681251D01*
X462756250Y-83343750D02*
X472281250Y-83343750D01*
X499268750Y-125412500D02*
X499268750Y-122237500D01*
X497681250Y-142875000D02*
X484981250Y-142875000D01*
X504812500Y-154000000D02*
X504812500Y-155562500D01*
X504018750Y-154000000D02*
X504812500Y-154000000D01*
X504812500Y-155562500D02*
X504812500Y-156356250D01*
X504812500Y-156356250D02*
X511175000Y-162718750D01*
X397033750Y-76835000D02*
X397033750Y-77946250D01*
X397033750Y-88352500D02*
X403106250Y-94425000D01*
X397033750Y-76835000D02*
X397033750Y-88352500D01*
X401796250Y-95885000D02*
X401796250Y-109783750D01*
X403975000Y-111962500D02*
X405487500Y-113475000D01*
X403975000Y-111962500D02*
X404177500Y-112165000D01*
X401796250Y-109783750D02*
X403975000Y-111962500D01*
X408940000Y-143360000D02*
X400725000Y-151575000D01*
X408940000Y-133985000D02*
X408940000Y-143360000D01*
X467518750Y-164306250D02*
X471487500Y-160337500D01*
X404177500Y-129222500D02*
X408940000Y-133985000D01*
X404177500Y-114935000D02*
X404177500Y-129222500D01*
X416083750Y-83590000D02*
X426918750Y-94425000D01*
X416083750Y-76835000D02*
X416083750Y-83590000D01*
X425608750Y-107402500D02*
X431681250Y-113475000D01*
X425608750Y-95885000D02*
X425608750Y-107402500D01*
X430371250Y-121690000D02*
X441206250Y-132525000D01*
X430371250Y-114935000D02*
X430371250Y-121690000D01*
X424537500Y-148837748D02*
X424537500Y-149984010D01*
X438050249Y-135324999D02*
X424537500Y-148837748D01*
X424537500Y-149984010D02*
X424537500Y-151575000D01*
X439202251Y-135324999D02*
X438050249Y-135324999D01*
X439896250Y-134631000D02*
X439202251Y-135324999D01*
X439896250Y-133985000D02*
X439896250Y-134631000D01*
X439896250Y-133985000D02*
X439896250Y-134302500D01*
X439896250Y-134302500D02*
X440531250Y-134937500D01*
X440531250Y-134937500D02*
X440531250Y-144462500D01*
X440531250Y-144462500D02*
X442118750Y-146050000D01*
X442118750Y-146050000D02*
X444500000Y-146050000D01*
X448350000Y-149984010D02*
X448350000Y-151575000D01*
X448350000Y-144075248D02*
X448350000Y-149984010D01*
X458440248Y-133985000D02*
X448350000Y-144075248D01*
X458946250Y-133985000D02*
X458440248Y-133985000D01*
X449421250Y-121690000D02*
X460256250Y-132525000D01*
X449421250Y-114935000D02*
X449421250Y-121690000D01*
X444658750Y-107402500D02*
X450731250Y-113475000D01*
X444658750Y-95885000D02*
X444658750Y-107402500D01*
X435133750Y-83590000D02*
X445968750Y-94425000D01*
X435133750Y-76835000D02*
X435133750Y-83590000D01*
X458946250Y-133985000D02*
X458946250Y-134302500D01*
X458946250Y-134302500D02*
X459581250Y-134937500D01*
X459581250Y-134937500D02*
X459581250Y-143668750D01*
X459581250Y-143668750D02*
X461168750Y-145256250D01*
X454183750Y-83590000D02*
X465018750Y-94425000D01*
X454183750Y-76835000D02*
X454183750Y-83590000D01*
X463708750Y-107402500D02*
X469781250Y-113475000D01*
X463708750Y-95885000D02*
X463708750Y-107402500D01*
X468471250Y-121690000D02*
X479306250Y-132525000D01*
X468471250Y-114935000D02*
X468471250Y-121690000D01*
X477996250Y-133985000D02*
X477996250Y-143827500D01*
X477996250Y-143827500D02*
X478631250Y-144462500D01*
X473233750Y-83590000D02*
X484068750Y-94425000D01*
X473233750Y-76835000D02*
X473233750Y-83590000D01*
X482758750Y-107402500D02*
X488831250Y-113475000D01*
X482758750Y-95885000D02*
X482758750Y-107402500D01*
X487521250Y-121690000D02*
X498356250Y-132525000D01*
X487521250Y-114935000D02*
X487521250Y-121690000D01*
X492283750Y-83590000D02*
X503118750Y-94425000D01*
X492283750Y-76835000D02*
X492283750Y-83590000D01*
X501808750Y-107402500D02*
X507881250Y-113475000D01*
X501808750Y-95885000D02*
X501808750Y-107402500D01*
X506571250Y-121690000D02*
X517406250Y-132525000D01*
X506571250Y-114935000D02*
X506571250Y-121690000D01*
X516096250Y-133985000D02*
X513715000Y-133985000D01*
X513715000Y-133985000D02*
X511175000Y-136525000D01*
X511175000Y-136525000D02*
X511175000Y-138112500D01*
X511175000Y-138112500D02*
X508793750Y-140493750D01*
X508793750Y-140493750D02*
X496887500Y-140493750D01*
X511333750Y-83590000D02*
X522168750Y-94425000D01*
X511333750Y-76835000D02*
X511333750Y-83590000D01*
X520858750Y-107402500D02*
X526931250Y-113475000D01*
X520858750Y-95885000D02*
X520858750Y-107402500D01*
X525621250Y-121690000D02*
X536456250Y-132525000D01*
X525621250Y-114935000D02*
X525621250Y-121690000D01*
X534640248Y-133985000D02*
X518477500Y-150147748D01*
X518477500Y-150147748D02*
X518477500Y-153035000D01*
X535146250Y-133985000D02*
X534640248Y-133985000D01*
X530383750Y-83590000D02*
X541218750Y-94425000D01*
X530383750Y-76835000D02*
X530383750Y-83590000D01*
X539908750Y-107402500D02*
X545981250Y-113475000D01*
X539908750Y-95885000D02*
X539908750Y-107402500D01*
X544671250Y-114935000D02*
X544671250Y-121690000D01*
X550818750Y-127837500D02*
X550818750Y-149975000D01*
X550818750Y-127837500D02*
X555506250Y-132525000D01*
X544671250Y-121690000D02*
X550818750Y-127837500D01*
X549433750Y-83590000D02*
X560268750Y-94425000D01*
X549433750Y-76835000D02*
X549433750Y-83590000D01*
X558958750Y-107402500D02*
X565031250Y-113475000D01*
X558958750Y-95885000D02*
X558958750Y-107402500D01*
X563721250Y-114935000D02*
X563721250Y-121690000D01*
X563721250Y-121690000D02*
X569075000Y-127043750D01*
X569868750Y-127837500D02*
X569868750Y-150768750D01*
X569868750Y-127837500D02*
X574556250Y-132525000D01*
X569075000Y-127043750D02*
X569868750Y-127837500D01*
X568483750Y-83590000D02*
X579318750Y-94425000D01*
X568483750Y-76835000D02*
X568483750Y-83590000D01*
X578008750Y-107402500D02*
X584081250Y-113475000D01*
X578008750Y-95885000D02*
X578008750Y-107402500D01*
X582771250Y-121690000D02*
X593606250Y-132525000D01*
X582771250Y-114935000D02*
X582771250Y-121690000D01*
X592296250Y-148122500D02*
X588843750Y-151575000D01*
X592296250Y-145415000D02*
X591502500Y-145415000D01*
X592296250Y-145415000D02*
X592296250Y-148122500D01*
X592296250Y-133985000D02*
X592296250Y-145415000D01*
X591502500Y-145415000D02*
X591343750Y-145256250D01*
X601821250Y-121690000D02*
X612656250Y-132525000D01*
X601821250Y-114935000D02*
X601821250Y-121690000D01*
X597058750Y-107402500D02*
X603131250Y-113475000D01*
X597058750Y-95885000D02*
X597058750Y-107402500D01*
X587533750Y-83590000D02*
X598368750Y-94425000D01*
X587533750Y-76835000D02*
X587533750Y-83590000D01*
X611346250Y-148122500D02*
X607893750Y-151575000D01*
X611346250Y-146208750D02*
X610552500Y-146208750D01*
X611346250Y-146208750D02*
X611346250Y-148122500D01*
X611346250Y-133985000D02*
X611346250Y-146208750D01*
X610552500Y-146208750D02*
X610393750Y-146050000D01*
X606583750Y-83590000D02*
X617418750Y-94425000D01*
X606583750Y-76835000D02*
X606583750Y-83590000D01*
X616108750Y-107402500D02*
X622181250Y-113475000D01*
X616108750Y-95885000D02*
X616108750Y-107402500D01*
X637259010Y-132525000D02*
X638850000Y-132525000D01*
X636299276Y-132525000D02*
X637259010Y-132525000D01*
X620871250Y-117096974D02*
X636299276Y-132525000D01*
X620871250Y-114935000D02*
X620871250Y-117096974D01*
X637540000Y-133985000D02*
X637540000Y-140978750D01*
X630312500Y-146768750D02*
X630237500Y-146843750D01*
X631750000Y-146768750D02*
X626943750Y-151575000D01*
X631750000Y-146768750D02*
X630312500Y-146768750D01*
X637540000Y-140978750D02*
X631750000Y-146768750D01*
X625633750Y-83590000D02*
X636468750Y-94425000D01*
X625633750Y-76835000D02*
X625633750Y-83590000D01*
X647118749Y-150450001D02*
X645993750Y-151575000D01*
X647630001Y-149938749D02*
X647118749Y-150450001D01*
X635158750Y-113757276D02*
X647630001Y-126228527D01*
X635158750Y-95885000D02*
X635158750Y-113757276D01*
X646182499Y-147567501D02*
X646112500Y-147637500D01*
X647630001Y-147567501D02*
X646182499Y-147567501D01*
X647630001Y-147567501D02*
X647630001Y-149938749D01*
X647630001Y-126228527D02*
X647630001Y-147567501D01*
X654208750Y-88352500D02*
X660281250Y-94425000D01*
X654208750Y-76835000D02*
X654208750Y-88352500D01*
X658971250Y-107641250D02*
X653137500Y-113475000D01*
X658971250Y-95885000D02*
X658971250Y-107641250D01*
X651827500Y-119308750D02*
X665043750Y-132525000D01*
X651827500Y-114935000D02*
X651827500Y-119308750D01*
X663733750Y-133985000D02*
X663733750Y-136366250D01*
X663733750Y-148590000D02*
X662146250Y-148590000D01*
X663733750Y-148590000D02*
X663733750Y-153035000D01*
X663733750Y-136366250D02*
X663733750Y-148590000D01*
X662146250Y-148590000D02*
X661987500Y-148431250D01*
X682783750Y-96531000D02*
X682783750Y-114935000D01*
X682783750Y-95885000D02*
X682783750Y-96531000D01*
X682783750Y-117316250D02*
X682783750Y-133985000D01*
X682783750Y-114935000D02*
X682783750Y-117316250D01*
X682783750Y-136366250D02*
X682783750Y-153035000D01*
X682783750Y-133985000D02*
X682783750Y-136366250D01*
X682783750Y-79216250D02*
X682783750Y-95885000D01*
X682783750Y-76835000D02*
X682783750Y-79216250D01*
X681831250Y-159543750D02*
X683418750Y-157956250D01*
X683418750Y-153670000D02*
X682783750Y-153035000D01*
X683418750Y-157956250D02*
X683418750Y-153670000D01*
X584200000Y-159543750D02*
X681831250Y-159543750D01*
X496093750Y-162718750D02*
X496887500Y-161925000D01*
X496887500Y-161925000D02*
X496887500Y-160337500D01*
X484981250Y-87312500D02*
X484981250Y-81756250D01*
X490537500Y-142081250D02*
X490537500Y-130968750D01*
X490537500Y-130968750D02*
X487362500Y-130968750D01*
X487362500Y-130968750D02*
X481806250Y-125412500D01*
X481806250Y-125412500D02*
X480218750Y-123825000D01*
X480218750Y-123825000D02*
X480218750Y-111125000D01*
X480218750Y-111125000D02*
X480218750Y-103981250D01*
X480218750Y-103981250D02*
X479425000Y-103187500D01*
X485775000Y-152400000D02*
X484187500Y-152400000D01*
X484981250Y-150812500D02*
X479425000Y-150812500D01*
X479425000Y-150812500D02*
X479425000Y-153987500D01*
X496093750Y-159543750D02*
X496093750Y-161131250D01*
X491331250Y-161925000D02*
X491331250Y-162718750D01*
X496093750Y-161131250D02*
X492125000Y-161131250D01*
X492125000Y-161131250D02*
X491331250Y-161925000D01*
X493712500Y-154781250D02*
X493712500Y-150018750D01*
X493712500Y-150018750D02*
X492918750Y-149225000D01*
X497681250Y-154781250D02*
X499268750Y-156368750D01*
X493712500Y-154781250D02*
X497681250Y-154781250D01*
X490537500Y-127000000D02*
X484981250Y-121443750D01*
X488156250Y-79375000D02*
X488156250Y-88900000D01*
X488156250Y-88900000D02*
X493712500Y-94456250D01*
X493712500Y-94456250D02*
X493712500Y-107950000D01*
X493712500Y-107950000D02*
X486568750Y-107950000D01*
X486568750Y-107950000D02*
X485775000Y-108743750D01*
X484981250Y-121443750D02*
X484187500Y-120650000D01*
X504583998Y-85641338D02*
X515937500Y-96994840D01*
X515937500Y-96994840D02*
X515937500Y-99218750D01*
X504583998Y-85483998D02*
X503237500Y-84137500D01*
X504583998Y-85641338D02*
X504583998Y-85483998D01*
X503237500Y-71437500D02*
X503237500Y-84137500D01*
X515937500Y-99218750D02*
X515937500Y-109537500D01*
X515937500Y-109537500D02*
X519906250Y-113506250D01*
X519906250Y-113506250D02*
X519906250Y-125412500D01*
X519906250Y-125412500D02*
X529431250Y-134937500D01*
X529431250Y-134937500D02*
X530225000Y-135731250D01*
X531812500Y-139700000D02*
X531812500Y-163512500D01*
X498493750Y-160318750D02*
X501631250Y-160318750D01*
X501631250Y-160318750D02*
X503237500Y-161925000D01*
X503237500Y-161925000D02*
X503237500Y-162718750D01*
X520408740Y-126708740D02*
X528637500Y-134937500D01*
X502443750Y-84137500D02*
X515143750Y-96837500D01*
X519112500Y-125412500D02*
X520408740Y-126708740D01*
X515143750Y-109537500D02*
X519112500Y-113506250D01*
X519112500Y-113506250D02*
X519112500Y-125412500D01*
X502443750Y-72231250D02*
X502443750Y-84137500D01*
X515143750Y-96837500D02*
X515143750Y-109537500D01*
X528637500Y-134937500D02*
X528637500Y-135731250D01*
X530225000Y-139700000D02*
X530225000Y-163512500D01*
X528637500Y-164306250D02*
X530225000Y-164306250D01*
X530225000Y-164306250D02*
X530225000Y-163512500D01*
X497693750Y-159531250D02*
X497693750Y-161912500D01*
X497693750Y-161912500D02*
X498475000Y-162693750D01*
X476314499Y-96108249D02*
X475456250Y-95250000D01*
X479356251Y-146912499D02*
X479356251Y-135006249D01*
X481012500Y-133350000D02*
X481012500Y-131762500D01*
X473868750Y-152400000D02*
X479356251Y-146912499D01*
X476250000Y-122237500D02*
X479425000Y-119062500D01*
X479356251Y-135006249D02*
X481012500Y-133350000D01*
X473868750Y-155575000D02*
X473868750Y-152400000D01*
X481012500Y-131762500D02*
X476250000Y-127000000D01*
X476250000Y-127000000D02*
X476250000Y-122237500D01*
X479425000Y-119062500D02*
X479425000Y-112712500D01*
X479425000Y-112712500D02*
X476250000Y-109537500D01*
X476250000Y-109537500D02*
X476314499Y-96108249D01*
X515143750Y-146843750D02*
X515937500Y-147637500D01*
X515143750Y-146843750D02*
X504031250Y-146843750D01*
X515937500Y-153193750D02*
X515937500Y-147637500D01*
M02*
