M48
; DRILL file {KiCad (5.1.5)-3} date 5/5/2020 4:11:25 PM
; FORMAT={-:-/ absolute / inch / decimal}
; #@! TF.CreationDate,2020-05-05T16:11:25-04:00
; #@! TF.GenerationSoftware,Kicad,Pcbnew,(5.1.5)-3
; #@! TF.FileFunction,Plated,1,2,PTH
FMAT,2
INCH
T1C0.0157
T2C0.0579
%
G90
G05
T1
X17.5Y-5.75
X18.1562Y-5.7188
X18.2188Y-3.2812
X18.4062Y-6.4688
X18.5625Y-6.3125
X18.5938Y-3.2812
X18.6562Y-3.4062
X18.6562Y-6.125
X18.7188Y-3.75
X18.8438Y-4.2812
X18.8438Y-5.6875
X18.875Y-4.0625
X18.875Y-6.0625
X18.9688Y-4.2812
X19.0312Y-4.9087
X19.0625Y-4.75
X19.0625Y-6.0
X19.0938Y-3.2188
X19.0938Y-3.4375
X19.0938Y-5.625
X19.0938Y-5.9375
X19.125Y-4.2812
X19.125Y-6.0
X19.2188Y-3.125
X19.3125Y-5.0
X19.3125Y-5.5938
X19.3438Y-6.4062
X19.4062Y-5.875
X19.4375Y-6.0938
X19.5312Y-6.2812
X19.5312Y-6.4062
X19.5625Y-5.5312
X19.5625Y-6.3125
X19.5938Y-5.625
X19.5942Y-6.2808
X19.625Y-6.4053
X19.6257Y-6.3118
X19.6562Y-4.8125
X19.6562Y-4.9375
X19.6562Y-6.1562
X19.7812Y-2.8438
X19.8125Y-2.8125
X19.8125Y-6.4062
X19.8433Y-6.063
X19.8438Y-5.7812
X20.125Y-6.4062
X20.3125Y-6.0312
X20.8125Y-5.3438
X20.8125Y-6.4688
X20.875Y-5.3438
X20.875Y-5.5
X20.9375Y-5.5
X20.9375Y-6.4375
X21.6858Y-5.9045
X22.4358Y-5.9358
X23.0Y-6.2812
X23.2812Y-5.7188
X24.0312Y-5.75
X24.8125Y-5.7812
X25.4375Y-5.8125
X26.0625Y-5.8438
T2
X22.3812Y-3.025
X22.4328Y-2.9675
X22.6297Y-2.9478
X22.6312Y-2.925
X16.1Y-5.275
X16.1516Y-5.2175
X16.3484Y-5.1978
X16.35Y-5.175
X16.6625Y-6.025
X16.7141Y-5.9675
X16.9109Y-5.9478
X16.9125Y-5.925
X22.5687Y-5.275
X22.6203Y-5.2175
X22.8172Y-5.1978
X22.8187Y-5.175
X19.0062Y-3.775
X19.0578Y-3.7175
X19.2547Y-3.6978
X19.2562Y-3.675
X19.3812Y-3.025
X19.4328Y-2.9675
X19.6297Y-2.9478
X19.6312Y-2.925
X23.6937Y-4.525
X23.7453Y-4.4675
X23.9422Y-4.4478
X23.9437Y-4.425
X24.2562Y-3.775
X24.3078Y-3.7175
X24.5047Y-3.6978
X24.5062Y-3.675
X25.3812Y-6.025
X25.4328Y-5.9675
X25.6297Y-5.9478
X25.6312Y-5.925
X17.3187Y-5.275
X17.3703Y-5.2175
X17.5672Y-5.1978
X17.5687Y-5.175
X22.9437Y-4.525
X22.9953Y-4.4675
X23.1922Y-4.4478
X23.1937Y-4.425
X18.8187Y-5.275
X18.8703Y-5.2175
X19.0672Y-5.1978
X19.0687Y-5.175
X22.0062Y-3.775
X22.0578Y-3.7175
X22.2547Y-3.6978
X22.2562Y-3.675
X19.9437Y-4.525
X19.9953Y-4.4675
X20.1922Y-4.4478
X20.1937Y-4.425
X19.1937Y-4.525
X19.2453Y-4.4675
X19.4422Y-4.4478
X19.4437Y-4.425
X25.1Y-5.275
X25.1516Y-5.2175
X25.3484Y-5.1978
X25.35Y-5.175
X24.4437Y-4.525
X24.4953Y-4.4675
X24.6922Y-4.4478
X24.6937Y-4.425
X25.6625Y-4.525
X25.7141Y-4.4675
X25.9109Y-4.4478
X25.9125Y-4.425
X21.0687Y-5.275
X21.1203Y-5.2175
X21.3172Y-5.1978
X21.3187Y-5.175
X20.8812Y-3.025
X20.9328Y-2.9675
X21.1297Y-2.9478
X21.1312Y-2.925
X17.8812Y-3.025
X17.9328Y-2.9675
X18.1297Y-2.9478
X18.1312Y-2.925
X23.3187Y-5.275
X23.3703Y-5.2175
X23.5672Y-5.1978
X23.5687Y-5.175
X15.725Y-6.025
X15.7766Y-5.9675
X15.9734Y-5.9478
X15.975Y-5.925
X17.5062Y-3.775
X17.5578Y-3.7175
X17.7547Y-3.6978
X17.7562Y-3.675
X18.0687Y-5.275
X18.1203Y-5.2175
X18.3172Y-5.1978
X18.3187Y-5.175
X24.6312Y-6.025
X24.6828Y-5.9675
X24.8797Y-5.9478
X24.8812Y-5.925
X24.6312Y-3.025
X24.6828Y-2.9675
X24.8797Y-2.9478
X24.8812Y-2.925
X26.8812Y-5.275
X26.9328Y-5.2175
X27.1297Y-5.1978
X27.1312Y-5.175
X26.8812Y-4.525
X26.9328Y-4.4675
X27.1297Y-4.4478
X27.1312Y-4.425
X22.7562Y-3.775
X22.8078Y-3.7175
X23.0047Y-3.6978
X23.0062Y-3.675
X21.4437Y-4.525
X21.4953Y-4.4675
X21.6922Y-4.4478
X21.6937Y-4.425
X19.7562Y-3.775
X19.8078Y-3.7175
X20.0047Y-3.6978
X20.0062Y-3.675
X20.1312Y-3.025
X20.1828Y-2.9675
X20.3797Y-2.9478
X20.3812Y-2.925
X17.6937Y-4.525
X17.7453Y-4.4675
X17.9422Y-4.4478
X17.9437Y-4.425
X23.1312Y-3.025
X23.1828Y-2.9675
X23.3797Y-2.9478
X23.3812Y-2.925
X23.8812Y-6.025
X23.9328Y-5.9675
X24.1297Y-5.9478
X24.1312Y-5.925
X16.3812Y-3.025
X16.4328Y-2.9675
X16.6297Y-2.9478
X16.6312Y-2.925
X20.4125Y-6.025
X20.4641Y-5.9675
X20.6609Y-5.9478
X20.6625Y-5.925
X15.8187Y-3.775
X15.8703Y-3.7175
X16.0672Y-3.6978
X16.0687Y-3.675
X23.1312Y-6.025
X23.1828Y-5.9675
X23.3797Y-5.9478
X23.3812Y-5.925
X19.5687Y-5.275
X19.6203Y-5.2175
X19.8172Y-5.1978
X19.8187Y-5.175
X20.5062Y-3.775
X20.5578Y-3.7175
X20.7547Y-3.6978
X20.7562Y-3.675
X17.6Y-6.025
X17.6516Y-5.9675
X17.8484Y-5.9478
X17.85Y-5.925
X24.0687Y-5.275
X24.1203Y-5.2175
X24.3172Y-5.1978
X24.3187Y-5.175
X23.8812Y-3.025
X23.9328Y-2.9675
X24.1297Y-2.9478
X24.1312Y-2.925
X26.8812Y-6.025
X26.9328Y-5.9675
X27.1297Y-5.9478
X27.1312Y-5.925
X21.2562Y-3.775
X21.3078Y-3.7175
X21.5047Y-3.6978
X21.5062Y-3.675
X21.8187Y-5.275
X21.8703Y-5.2175
X22.0672Y-5.1978
X22.0687Y-5.175
X17.1312Y-3.025
X17.1828Y-2.9675
X17.3797Y-2.9478
X17.3812Y-2.925
X20.6937Y-4.525
X20.7453Y-4.4675
X20.9422Y-4.4478
X20.9437Y-4.425
X18.2562Y-3.775
X18.3078Y-3.7175
X18.5047Y-3.6978
X18.5062Y-3.675
X25.0062Y-3.775
X25.0578Y-3.7175
X25.2547Y-3.6978
X25.2562Y-3.675
X25.7562Y-3.025
X25.8078Y-2.9675
X26.0047Y-2.9478
X26.0062Y-2.925
X25.9437Y-3.775
X25.9953Y-3.7175
X26.1922Y-3.6978
X26.1937Y-3.675
X16.7562Y-3.775
X16.8078Y-3.7175
X17.0047Y-3.6978
X17.0062Y-3.675
X26.8812Y-3.025
X26.9328Y-2.9675
X27.1297Y-2.9478
X27.1312Y-2.925
X15.6312Y-3.025
X15.6828Y-2.9675
X15.8797Y-2.9478
X15.8812Y-2.925
X21.6312Y-3.025
X21.6828Y-2.9675
X21.8797Y-2.9478
X21.8812Y-2.925
X15.9125Y-4.525
X15.9641Y-4.4675
X16.1609Y-4.4478
X16.1625Y-4.425
X20.3187Y-5.275
X20.3703Y-5.2175
X20.5672Y-5.1978
X20.5687Y-5.175
X22.1937Y-4.525
X22.2453Y-4.4675
X22.4422Y-4.4478
X22.4437Y-4.425
X18.6312Y-3.025
X18.6828Y-2.9675
X18.8797Y-2.9478
X18.8812Y-2.925
X18.4437Y-4.525
X18.4953Y-4.4675
X18.6922Y-4.4478
X18.6937Y-4.425
X23.5062Y-3.775
X23.5578Y-3.7175
X23.7547Y-3.6978
X23.7562Y-3.675
X26.1312Y-5.275
X26.1828Y-5.2175
X26.3797Y-5.1978
X26.3812Y-5.175
X26.1312Y-6.025
X26.1828Y-5.9675
X26.3797Y-5.9478
X26.3812Y-5.925
X16.9437Y-4.525
X16.9953Y-4.4675
X17.1922Y-4.4478
X17.1937Y-4.425
X26.8812Y-3.775
X26.9328Y-3.7175
X27.1297Y-3.6978
X27.1312Y-3.675
T0
M30
