G04 #@! TF.GenerationSoftware,KiCad,Pcbnew,(5.1.5)-3*
G04 #@! TF.CreationDate,2020-05-05T16:11:28-04:00*
G04 #@! TF.ProjectId,TheSedan,54686553-6564-4616-9e2e-6b696361645f,rev?*
G04 #@! TF.SameCoordinates,Original*
G04 #@! TF.FileFunction,Legend,Top*
G04 #@! TF.FilePolarity,Positive*
%FSLAX46Y46*%
G04 Gerber Fmt 4.6, Leading zero omitted, Abs format (unit mm)*
G04 Created by KiCad (PCBNEW (5.1.5)-3) date 2020-05-05 16:11:28*
%MOMM*%
%LPD*%
G04 APERTURE LIST*
%ADD10C,0.635000*%
%ADD11C,1.270000*%
G04 APERTURE END LIST*
D10*
X466226071Y-109099047D02*
X466226071Y-107405714D01*
X466226071Y-107889523D02*
X466347023Y-107647619D01*
X466467976Y-107526666D01*
X466709880Y-107405714D01*
X466951785Y-107405714D01*
X468766071Y-108978095D02*
X468524166Y-109099047D01*
X468040357Y-109099047D01*
X467798452Y-108978095D01*
X467677500Y-108736190D01*
X467677500Y-107768571D01*
X467798452Y-107526666D01*
X468040357Y-107405714D01*
X468524166Y-107405714D01*
X468766071Y-107526666D01*
X468887023Y-107768571D01*
X468887023Y-108010476D01*
X467677500Y-108252380D01*
X469733690Y-107405714D02*
X470338452Y-109099047D01*
X470943214Y-107405714D01*
X471789880Y-106800952D02*
X471910833Y-106680000D01*
X472152738Y-106559047D01*
X472757500Y-106559047D01*
X472999404Y-106680000D01*
X473120357Y-106800952D01*
X473241309Y-107042857D01*
X473241309Y-107284761D01*
X473120357Y-107647619D01*
X471668928Y-109099047D01*
X473241309Y-109099047D01*
X474329880Y-108857142D02*
X474450833Y-108978095D01*
X474329880Y-109099047D01*
X474208928Y-108978095D01*
X474329880Y-108857142D01*
X474329880Y-109099047D01*
X476869880Y-109099047D02*
X475418452Y-109099047D01*
X476144166Y-109099047D02*
X476144166Y-106559047D01*
X475902261Y-106921904D01*
X475660357Y-107163809D01*
X475418452Y-107284761D01*
D11*
X406740178Y-101395892D02*
X411094464Y-101395892D01*
X408917321Y-109015892D02*
X408917321Y-101395892D01*
X413634464Y-109015892D02*
X413634464Y-101395892D01*
X416900178Y-109015892D02*
X416900178Y-105024464D01*
X416537321Y-104298750D01*
X415811607Y-103935892D01*
X414723035Y-103935892D01*
X413997321Y-104298750D01*
X413634464Y-104661607D01*
X423431607Y-108653035D02*
X422705892Y-109015892D01*
X421254464Y-109015892D01*
X420528750Y-108653035D01*
X420165892Y-107927321D01*
X420165892Y-105024464D01*
X420528750Y-104298750D01*
X421254464Y-103935892D01*
X422705892Y-103935892D01*
X423431607Y-104298750D01*
X423794464Y-105024464D01*
X423794464Y-105750178D01*
X420165892Y-106475892D01*
X432503035Y-108653035D02*
X433591607Y-109015892D01*
X435405892Y-109015892D01*
X436131607Y-108653035D01*
X436494464Y-108290178D01*
X436857321Y-107564464D01*
X436857321Y-106838750D01*
X436494464Y-106113035D01*
X436131607Y-105750178D01*
X435405892Y-105387321D01*
X433954464Y-105024464D01*
X433228750Y-104661607D01*
X432865892Y-104298750D01*
X432503035Y-103573035D01*
X432503035Y-102847321D01*
X432865892Y-102121607D01*
X433228750Y-101758750D01*
X433954464Y-101395892D01*
X435768750Y-101395892D01*
X436857321Y-101758750D01*
X443025892Y-108653035D02*
X442300178Y-109015892D01*
X440848750Y-109015892D01*
X440123035Y-108653035D01*
X439760178Y-107927321D01*
X439760178Y-105024464D01*
X440123035Y-104298750D01*
X440848750Y-103935892D01*
X442300178Y-103935892D01*
X443025892Y-104298750D01*
X443388750Y-105024464D01*
X443388750Y-105750178D01*
X439760178Y-106475892D01*
X449920178Y-109015892D02*
X449920178Y-101395892D01*
X449920178Y-108653035D02*
X449194464Y-109015892D01*
X447743035Y-109015892D01*
X447017321Y-108653035D01*
X446654464Y-108290178D01*
X446291607Y-107564464D01*
X446291607Y-105387321D01*
X446654464Y-104661607D01*
X447017321Y-104298750D01*
X447743035Y-103935892D01*
X449194464Y-103935892D01*
X449920178Y-104298750D01*
X456814464Y-109015892D02*
X456814464Y-105024464D01*
X456451607Y-104298750D01*
X455725892Y-103935892D01*
X454274464Y-103935892D01*
X453548750Y-104298750D01*
X456814464Y-108653035D02*
X456088750Y-109015892D01*
X454274464Y-109015892D01*
X453548750Y-108653035D01*
X453185892Y-107927321D01*
X453185892Y-107201607D01*
X453548750Y-106475892D01*
X454274464Y-106113035D01*
X456088750Y-106113035D01*
X456814464Y-105750178D01*
X460443035Y-103935892D02*
X460443035Y-109015892D01*
X460443035Y-104661607D02*
X460805892Y-104298750D01*
X461531607Y-103935892D01*
X462620178Y-103935892D01*
X463345892Y-104298750D01*
X463708750Y-105024464D01*
X463708750Y-109015892D01*
M02*
