M48
; DRILL file {KiCad (5.1.5)-3} date 5/5/2020 4:11:25 PM
; FORMAT={-:-/ absolute / inch / decimal}
; #@! TF.CreationDate,2020-05-05T16:11:25-04:00
; #@! TF.GenerationSoftware,Kicad,Pcbnew,(5.1.5)-3
; #@! TF.FileFunction,NonPlated,1,2,NPTH
FMAT,2
INCH
T1C0.0689
T2C0.1200
T3C0.1570
%
G90
G05
T1
X26.8313Y-6.125
X27.2312Y-6.125
X21.2063Y-3.875
X21.6062Y-3.875
X21.7688Y-5.375
X22.1687Y-5.375
X17.0813Y-3.125
X17.4812Y-3.125
X20.6438Y-4.625
X21.0437Y-4.625
X18.2063Y-3.875
X18.6062Y-3.875
X24.9563Y-3.875
X25.3562Y-3.875
X25.7063Y-3.125
X26.1062Y-3.125
X25.8938Y-3.875
X26.2937Y-3.875
X16.7063Y-3.875
X17.1062Y-3.875
X26.8313Y-3.125
X27.2312Y-3.125
X15.5812Y-3.125
X15.9812Y-3.125
X21.5813Y-3.125
X21.9812Y-3.125
X15.8625Y-4.625
X16.2625Y-4.625
X20.2688Y-5.375
X20.6687Y-5.375
X22.1438Y-4.625
X22.5437Y-4.625
X18.5813Y-3.125
X18.9812Y-3.125
X18.3938Y-4.625
X18.7937Y-4.625
X23.4563Y-3.875
X23.8562Y-3.875
X26.0813Y-5.375
X26.4812Y-5.375
X26.0813Y-6.125
X26.4812Y-6.125
X16.8938Y-4.625
X17.2937Y-4.625
X26.8313Y-3.875
X27.2312Y-3.875
X22.3313Y-3.125
X22.7312Y-3.125
X16.05Y-5.375
X16.45Y-5.375
X16.6125Y-6.125
X17.0125Y-6.125
X22.5188Y-5.375
X22.9187Y-5.375
X18.9563Y-3.875
X19.3562Y-3.875
X19.3313Y-3.125
X19.7312Y-3.125
X23.6438Y-4.625
X24.0437Y-4.625
X24.2063Y-3.875
X24.6062Y-3.875
X25.3313Y-6.125
X25.7312Y-6.125
X17.2688Y-5.375
X17.6687Y-5.375
X22.8938Y-4.625
X23.2937Y-4.625
X18.7688Y-5.375
X19.1687Y-5.375
X21.9563Y-3.875
X22.3562Y-3.875
X19.8938Y-4.625
X20.2937Y-4.625
X19.1438Y-4.625
X19.5437Y-4.625
X25.05Y-5.375
X25.45Y-5.375
X24.3938Y-4.625
X24.7937Y-4.625
X25.6125Y-4.625
X26.0125Y-4.625
X21.0188Y-5.375
X21.4187Y-5.375
X20.8313Y-3.125
X21.2312Y-3.125
X17.8313Y-3.125
X18.2312Y-3.125
X23.2688Y-5.375
X23.6687Y-5.375
X15.675Y-6.125
X16.075Y-6.125
X17.4563Y-3.875
X17.8562Y-3.875
X18.0188Y-5.375
X18.4187Y-5.375
X24.5813Y-6.125
X24.9812Y-6.125
X24.5813Y-3.125
X24.9812Y-3.125
X26.8313Y-5.375
X27.2312Y-5.375
X26.8313Y-4.625
X27.2312Y-4.625
X22.7063Y-3.875
X23.1062Y-3.875
X21.3938Y-4.625
X21.7937Y-4.625
X19.7063Y-3.875
X20.1062Y-3.875
X20.0813Y-3.125
X20.4812Y-3.125
X17.6438Y-4.625
X18.0437Y-4.625
X23.0813Y-3.125
X23.4812Y-3.125
X23.8313Y-6.125
X24.2312Y-6.125
X16.3313Y-3.125
X16.7312Y-3.125
X20.3625Y-6.125
X20.7625Y-6.125
X15.7687Y-3.875
X16.1687Y-3.875
X23.0813Y-6.125
X23.4812Y-6.125
X19.5188Y-5.375
X19.9187Y-5.375
X20.4563Y-3.875
X20.8562Y-3.875
X17.55Y-6.125
X17.95Y-6.125
X24.0188Y-5.375
X24.4187Y-5.375
X23.8313Y-3.125
X24.2312Y-3.125
T2
X18.594Y-5.85
X22.531Y-5.85
X25.4363Y-2.85
X26.3762Y-2.85
X15.78Y-5.1
X16.72Y-5.1
X25.3425Y-4.35
X26.2825Y-4.35
T3
X23.0938Y-4.625
X18.9688Y-5.375
X22.1562Y-3.875
X20.0938Y-4.625
X19.3438Y-4.625
X25.25Y-5.375
X24.5938Y-4.625
X25.3425Y-4.95
X25.8125Y-4.625
X26.2825Y-4.95
X21.2188Y-5.375
X21.0312Y-3.125
X18.0312Y-3.125
X23.4688Y-5.375
X15.875Y-6.125
X17.6562Y-3.875
X18.2188Y-5.375
X24.7812Y-6.125
X24.7812Y-3.125
X27.0312Y-5.375
X27.0312Y-4.625
X22.9062Y-3.875
X21.5938Y-4.625
X19.9062Y-3.875
X20.2812Y-3.125
X17.8438Y-4.625
X23.2812Y-3.125
X24.0312Y-6.125
X16.5312Y-3.125
X18.594Y-6.45
X20.5625Y-6.125
X22.531Y-6.45
X15.9688Y-3.875
X23.2812Y-6.125
X19.7188Y-5.375
X20.6562Y-3.875
X17.75Y-6.125
X24.2188Y-5.375
X24.0312Y-3.125
X27.0312Y-6.125
X21.4062Y-3.875
X21.9688Y-5.375
X17.2812Y-3.125
X20.8438Y-4.625
X18.4062Y-3.875
X25.1562Y-3.875
X25.4363Y-3.45
X25.9062Y-3.125
X26.3762Y-3.45
X26.0938Y-3.875
X16.9062Y-3.875
X27.0312Y-3.125
X15.7812Y-3.125
X21.7812Y-3.125
X16.0625Y-4.625
X20.4688Y-5.375
X22.3438Y-4.625
X18.7812Y-3.125
X18.5938Y-4.625
X23.6562Y-3.875
X26.2812Y-5.375
X26.2812Y-6.125
X17.0938Y-4.625
X27.0312Y-3.875
X22.5312Y-3.125
X15.78Y-5.7
X16.25Y-5.375
X16.72Y-5.7
X16.8125Y-6.125
X22.7188Y-5.375
X19.1562Y-3.875
X19.5312Y-3.125
X23.8438Y-4.625
X24.4062Y-3.875
X25.5312Y-6.125
X17.4688Y-5.375
T0
M30
